<svg width="1654" height="542" viewBox="0 0 1654 542" fill="none" xmlns="http://www.w3.org/2000/svg">
<path d="M191.941 3.34618C122.166 3.34614 41.1943 19.2169 12.6746 60.4809C-15.845 101.745 12.678 421.382 12.6746 459.472C12.6713 497.562 100.267 542 176.663 542C253.058 542 308.587 491.699 387.02 491.699C465.452 491.699 527.552 542 600.892 542C674.232 542 692.044 491.699 784.224 491.699C876.404 491.699 909.511 542 986.416 542C1063.32 542 1082.62 491.699 1175.83 491.699C1269.03 491.699 1291.53 542 1390.33 542C1489.13 542 1624.6 512.865 1624.6 468.745C1624.6 424.624 1705.12 21.1215 1599.65 3.34621C1494.17 -14.4291 1464.57 44.4027 1397.85 44.4027C1331.13 44.4027 1328.15 3.34618 1245.64 3.34618C1163.13 3.34618 1143.76 44.4027 1077.04 44.4027C1010.32 44.4027 996.096 3.34618 913.589 3.34618C831.082 3.34618 781.178 44.4027 717.005 44.4027C652.832 44.4027 620.248 3.34618 550.982 3.34618C481.717 3.34618 410.963 44.4027 349.336 44.4027C287.71 44.4027 261.716 3.34622 191.941 3.34618Z" fill="black" fill-opacity="0.5"/>
</svg>
