<svg width="299" height="296" viewBox="0 0 299 296" fill="none" xmlns="http://www.w3.org/2000/svg">
<path d="M210.912 83.6615C189.229 94.4584 169.698 70.7604 153.386 29.6823C137.068 -11.3958 101.688 -13.4844 106.349 47.2084C111.016 107.901 109.667 117.573 75.4638 120.557C41.2606 123.542 -1.14041 129.443 0.396048 154.177C1.93251 178.911 74.396 186.682 83.0523 190.24C97.594 196.208 62.8179 274.12 70.7294 290.807C78.6356 307.5 132.099 280.828 157.375 231.151C177.943 202.385 203.964 246.135 275.776 254.719C302.521 257.911 309.839 239.719 277.964 210.776C246.094 181.833 222.183 152.776 235.62 142.906C260.167 124.875 298.011 100.432 292.24 76.7448C286.469 53.0521 210.912 83.6615 210.912 83.6615Z" fill="#FC6577"/>
<path d="M117.24 138.438C117.703 138.448 118.156 138.516 118.604 138.641C119.057 138.771 119.49 138.953 119.911 139.198C120.333 139.438 120.729 139.734 121.109 140.078C121.484 140.422 121.833 140.818 122.146 141.255C122.464 141.693 122.75 142.167 122.995 142.677C123.24 143.188 123.448 143.729 123.609 144.297C123.776 144.865 123.901 145.448 123.979 146.047C124.057 146.646 124.089 147.25 124.078 147.859C124.068 148.469 124.01 149.073 123.906 149.667C123.807 150.266 123.661 150.844 123.474 151.401C123.286 151.964 123.062 152.495 122.797 152.995C122.531 153.5 122.229 153.964 121.896 154.386C121.562 154.813 121.198 155.188 120.812 155.521C120.422 155.854 120.01 156.13 119.583 156.354C119.151 156.583 118.708 156.75 118.255 156.859C117.802 156.969 117.344 157.021 116.885 157.011C116.422 157.005 115.969 156.932 115.516 156.807C115.068 156.677 114.635 156.495 114.214 156.255C113.792 156.01 113.391 155.719 113.016 155.37C112.641 155.026 112.292 154.635 111.974 154.198C111.656 153.76 111.375 153.287 111.13 152.771C110.885 152.26 110.677 151.719 110.51 151.156C110.349 150.589 110.224 150.005 110.146 149.406C110.068 148.807 110.036 148.198 110.047 147.589C110.057 146.979 110.115 146.375 110.214 145.781C110.318 145.182 110.464 144.604 110.651 144.047C110.833 143.484 111.062 142.953 111.328 142.453C111.594 141.953 111.891 141.49 112.229 141.063C112.562 140.641 112.922 140.261 113.312 139.927C113.703 139.599 114.109 139.318 114.542 139.094C114.974 138.87 115.411 138.703 115.87 138.589C116.323 138.479 116.781 138.427 117.24 138.438Z" fill="#686D79"/>
<path d="M95.0774 156.547C95.8013 156.557 96.5149 156.625 97.2232 156.745C97.9315 156.865 98.619 157.031 99.2857 157.25C99.9524 157.469 100.583 157.734 101.176 158.047C101.775 158.359 102.322 158.708 102.827 159.099C103.333 159.49 103.78 159.912 104.176 160.37C104.567 160.823 104.9 161.302 105.166 161.807C105.437 162.307 105.635 162.823 105.765 163.354C105.895 163.885 105.958 164.422 105.947 164.958C105.937 165.5 105.853 166.031 105.702 166.557C105.551 167.078 105.333 167.589 105.046 168.083C104.76 168.573 104.411 169.042 103.999 169.479C103.588 169.917 103.119 170.323 102.603 170.693C102.083 171.068 101.52 171.396 100.911 171.682C100.301 171.969 99.6607 172.208 98.9888 172.401C98.317 172.594 97.6242 172.74 96.9107 172.828C96.1972 172.922 95.4784 172.958 94.7545 172.943C94.0305 172.932 93.317 172.865 92.6086 172.745C91.9003 172.625 91.2128 172.458 90.5461 172.24C89.8847 172.021 89.2545 171.755 88.6555 171.443C88.0617 171.13 87.5097 170.781 87.0045 170.391C86.4992 170 86.0513 169.578 85.6555 169.12C85.2649 168.667 84.9315 168.188 84.6659 167.682C84.4003 167.182 84.1972 166.662 84.067 166.13C83.9367 165.604 83.8795 165.068 83.8899 164.531C83.9003 163.99 83.9784 163.458 84.1295 162.932C84.2805 162.406 84.4992 161.901 84.7909 161.406C85.0774 160.917 85.4263 160.448 85.8378 160.01C86.244 159.568 86.7128 159.167 87.2336 158.792C87.7492 158.422 88.317 158.094 88.9211 157.807C89.5305 157.521 90.1711 157.281 90.843 157.089C91.5149 156.896 92.2076 156.75 92.9211 156.662C93.6347 156.568 94.3534 156.531 95.0774 156.547Z" fill="#F98C9E"/>
<path d="M191.135 134.521C191.239 135.125 191.302 135.724 191.318 136.328C191.338 136.932 191.307 137.531 191.234 138.115C191.156 138.703 191.036 139.266 190.875 139.812C190.713 140.354 190.51 140.865 190.265 141.349C190.021 141.828 189.739 142.271 189.422 142.672C189.104 143.073 188.755 143.427 188.375 143.729C188 144.036 187.599 144.286 187.172 144.479C186.75 144.677 186.312 144.818 185.854 144.896C185.401 144.979 184.943 145 184.479 144.958C184.01 144.922 183.547 144.828 183.088 144.672C182.63 144.516 182.182 144.302 181.745 144.036C181.307 143.771 180.89 143.453 180.495 143.089C180.099 142.719 179.729 142.307 179.39 141.854C179.047 141.401 178.739 140.911 178.469 140.385C178.198 139.865 177.963 139.312 177.771 138.74C177.578 138.167 177.427 137.583 177.318 136.979C177.213 136.38 177.151 135.776 177.135 135.172C177.114 134.568 177.146 133.974 177.219 133.391C177.297 132.802 177.411 132.24 177.578 131.693C177.739 131.151 177.943 130.635 178.187 130.156C178.432 129.672 178.713 129.234 179.031 128.833C179.349 128.432 179.698 128.078 180.078 127.776C180.453 127.469 180.854 127.219 181.281 127.021C181.703 126.828 182.14 126.687 182.594 126.609C183.052 126.526 183.51 126.505 183.974 126.542C184.443 126.583 184.901 126.677 185.364 126.833C185.823 126.99 186.271 127.198 186.708 127.464C187.146 127.734 187.562 128.047 187.958 128.417C188.354 128.781 188.724 129.193 189.062 129.651C189.406 130.104 189.713 130.594 189.984 131.115C190.255 131.641 190.489 132.187 190.682 132.76C190.875 133.333 191.026 133.922 191.135 134.521Z" fill="#686D79"/>
<path d="M219.244 145.547C219.338 146.073 219.364 146.609 219.322 147.151C219.28 147.693 219.166 148.234 218.983 148.771C218.801 149.307 218.556 149.833 218.239 150.344C217.926 150.854 217.551 151.344 217.119 151.807C216.687 152.276 216.202 152.708 215.666 153.109C215.129 153.51 214.551 153.875 213.931 154.198C213.317 154.516 212.666 154.792 211.989 155.026C211.312 155.255 210.619 155.438 209.911 155.568C209.197 155.698 208.489 155.776 207.77 155.797C207.056 155.823 206.353 155.797 205.661 155.714C204.968 155.63 204.296 155.5 203.655 155.313C203.009 155.13 202.405 154.896 201.832 154.615C201.259 154.333 200.739 154.01 200.265 153.646C199.791 153.276 199.369 152.875 199.009 152.438C198.65 152 198.353 151.536 198.119 151.042C197.884 150.552 197.718 150.042 197.619 149.51C197.525 148.984 197.499 148.448 197.541 147.906C197.582 147.365 197.697 146.823 197.879 146.286C198.062 145.75 198.306 145.224 198.624 144.714C198.937 144.203 199.312 143.714 199.744 143.25C200.176 142.781 200.661 142.349 201.197 141.948C201.733 141.547 202.312 141.188 202.931 140.865C203.546 140.542 204.197 140.266 204.874 140.031C205.551 139.802 206.244 139.62 206.952 139.49C207.666 139.359 208.374 139.286 209.093 139.26C209.806 139.234 210.509 139.26 211.202 139.344C211.895 139.427 212.567 139.557 213.207 139.745C213.853 139.927 214.457 140.161 215.03 140.443C215.603 140.724 216.124 141.047 216.598 141.417C217.072 141.781 217.494 142.182 217.853 142.62C218.213 143.057 218.509 143.521 218.744 144.016C218.978 144.505 219.145 145.016 219.244 145.547Z" fill="#F98C9E"/>
<path d="M154.318 98.6094C154.484 99.5313 154.578 100.458 154.604 101.391C154.625 102.318 154.578 103.234 154.463 104.135C154.349 105.037 154.161 105.906 153.906 106.745C153.656 107.583 153.338 108.37 152.958 109.109C152.578 109.854 152.14 110.531 151.646 111.151C151.156 111.766 150.614 112.313 150.026 112.781C149.443 113.25 148.818 113.635 148.161 113.938C147.505 114.24 146.828 114.453 146.125 114.578C145.422 114.703 144.708 114.74 143.984 114.682C143.265 114.625 142.547 114.474 141.838 114.234C141.125 114 140.427 113.677 139.755 113.266C139.078 112.859 138.432 112.37 137.818 111.807C137.208 111.24 136.635 110.609 136.109 109.911C135.583 109.214 135.109 108.458 134.687 107.656C134.265 106.849 133.906 106.005 133.604 105.125C133.307 104.245 133.078 103.339 132.911 102.417C132.745 101.495 132.651 100.568 132.63 99.6355C132.604 98.7084 132.651 97.7917 132.765 96.8907C132.885 95.9896 133.068 95.1198 133.323 94.2813C133.578 93.4427 133.89 92.6563 134.271 91.9115C134.651 91.1719 135.088 90.4896 135.583 89.875C136.078 89.2552 136.614 88.7136 137.203 88.2448C137.786 87.7761 138.411 87.3907 139.068 87.0886C139.724 86.7865 140.406 86.573 141.109 86.448C141.812 86.323 142.521 86.2865 143.245 86.3438C143.963 86.4011 144.682 86.5521 145.396 86.7865C146.104 87.0261 146.802 87.349 147.474 87.7605C148.151 88.1667 148.797 88.6563 149.411 89.2188C150.026 89.7813 150.594 90.4167 151.12 91.1146C151.651 91.8125 152.125 92.5625 152.547 93.3698C152.963 94.1771 153.323 95.0157 153.625 95.9011C153.922 96.7813 154.156 97.6823 154.318 98.6094Z" fill="#FC8688"/>
<path d="M238.526 97.4271C238.776 97.9583 238.953 98.5104 239.062 99.0938C239.172 99.6771 239.208 100.276 239.172 100.891C239.135 101.505 239.031 102.125 238.849 102.745C238.672 103.37 238.422 103.979 238.104 104.589C237.792 105.193 237.411 105.781 236.969 106.349C236.531 106.911 236.036 107.448 235.49 107.958C234.943 108.464 234.349 108.927 233.714 109.354C233.078 109.776 232.417 110.156 231.719 110.484C231.021 110.813 230.307 111.083 229.573 111.302C228.844 111.521 228.109 111.682 227.37 111.781C226.63 111.885 225.901 111.922 225.182 111.901C224.464 111.88 223.771 111.802 223.099 111.656C222.432 111.516 221.802 111.318 221.203 111.057C220.609 110.802 220.063 110.49 219.568 110.13C219.073 109.766 218.63 109.354 218.25 108.901C217.87 108.448 217.552 107.953 217.307 107.427C217.057 106.896 216.875 106.344 216.766 105.76C216.656 105.177 216.62 104.578 216.656 103.964C216.693 103.349 216.802 102.729 216.979 102.109C217.161 101.484 217.406 100.87 217.724 100.266C218.042 99.6615 218.417 99.0729 218.859 98.5052C219.297 97.9427 219.792 97.4063 220.344 96.8958C220.891 96.3906 221.479 95.9271 222.115 95.5C222.75 95.0781 223.417 94.6979 224.115 94.3698C224.807 94.0417 225.521 93.7708 226.255 93.5521C226.99 93.3333 227.724 93.1719 228.464 93.0729C229.203 92.9688 229.932 92.9323 230.646 92.9531C231.365 92.974 232.057 93.0521 232.729 93.1979C233.396 93.3385 234.031 93.5365 234.625 93.7969C235.219 94.0521 235.766 94.3646 236.26 94.724C236.76 95.0885 237.198 95.5 237.578 95.9531C237.958 96.4063 238.276 96.901 238.526 97.4271Z" fill="#FC8688"/>
<path d="M268.281 81.6823C268.542 82.0417 268.75 82.4323 268.912 82.849C269.073 83.2657 269.183 83.7032 269.245 84.1615C269.302 84.625 269.308 85.099 269.261 85.5834C269.214 86.0677 269.115 86.5573 268.964 87.0521C268.813 87.5469 268.615 88.0313 268.37 88.5157C268.12 88.9948 267.828 89.4636 267.49 89.9115C267.156 90.3646 266.781 90.7917 266.37 91.1927C265.959 91.599 265.516 91.9688 265.047 92.3073C264.573 92.6459 264.084 92.948 263.568 93.2136C263.058 93.474 262.531 93.698 262 93.875C261.464 94.0521 260.933 94.1823 260.396 94.2657C259.86 94.349 259.334 94.3802 258.818 94.3698C258.302 94.3594 257.808 94.2969 257.328 94.1875C256.854 94.0782 256.406 93.9219 255.985 93.724C255.568 93.5209 255.183 93.2813 254.839 92.9948C254.495 92.7136 254.193 92.3907 253.933 92.0313C253.677 91.6719 253.464 91.2865 253.302 90.8698C253.141 90.4532 253.031 90.0157 252.974 89.5521C252.917 89.0938 252.906 88.6198 252.953 88.1302C253 87.6459 253.099 87.1563 253.25 86.6615C253.401 86.1719 253.599 85.6823 253.849 85.2032C254.099 84.7188 254.391 84.2552 254.724 83.8021C255.063 83.3542 255.438 82.9271 255.849 82.5209C256.261 82.1198 256.698 81.75 257.172 81.4063C257.641 81.0677 258.136 80.7657 258.646 80.5052C259.162 80.2396 259.683 80.0209 260.219 79.8438C260.75 79.6667 261.287 79.5365 261.823 79.4532C262.354 79.3698 262.88 79.3334 263.396 79.349C263.912 79.3594 264.412 79.4219 264.886 79.5313C265.365 79.6354 265.813 79.7917 266.229 79.9948C266.651 80.1927 267.031 80.4375 267.375 80.7188C267.724 81.0052 268.026 81.3282 268.281 81.6823Z" fill="#FC8688"/>
<path d="M84.4432 138.099C84.4796 138.682 84.4432 139.266 84.3234 139.849C84.2088 140.427 84.0213 141 83.7609 141.552C83.5005 142.109 83.1671 142.646 82.7713 143.156C82.3755 143.667 81.9171 144.146 81.3963 144.594C80.8755 145.036 80.3077 145.443 79.688 145.807C79.0682 146.167 78.4119 146.484 77.714 146.75C77.0161 147.016 76.2973 147.229 75.5473 147.385C74.8025 147.547 74.0421 147.651 73.2765 147.698C72.5057 147.745 71.74 147.729 70.9796 147.661C70.2192 147.594 69.4744 147.469 68.7505 147.292C68.0265 147.109 67.339 146.875 66.6775 146.589C66.0213 146.307 65.4067 145.974 64.839 145.594C64.2661 145.214 63.7557 144.792 63.2973 144.333C62.8442 143.875 62.4536 143.385 62.1255 142.859C61.7973 142.339 61.5421 141.797 61.3546 141.234C61.1723 140.672 61.063 140.099 61.0265 139.516C60.99 138.927 61.0317 138.349 61.1463 137.766C61.2609 137.182 61.4484 136.615 61.714 136.057C61.9744 135.5 62.3025 134.969 62.7036 134.453C63.0994 133.943 63.5577 133.464 64.0786 133.021C64.5942 132.573 65.1619 132.172 65.7817 131.807C66.4015 131.443 67.063 131.13 67.7609 130.865C68.4536 130.599 69.1775 130.385 69.9223 130.224C70.6723 130.068 71.4275 129.964 72.1984 129.917C72.9692 129.87 73.7296 129.88 74.4952 129.948C75.2557 130.016 75.9952 130.141 76.7192 130.323C77.4432 130.505 78.1359 130.734 78.7921 131.021C79.4536 131.307 80.0682 131.641 80.6359 132.021C81.2036 132.401 81.7192 132.818 82.1723 133.281C82.6307 133.74 83.0213 134.229 83.3494 134.75C83.6775 135.271 83.9328 135.813 84.115 136.38C84.3025 136.943 84.4119 137.516 84.4432 138.099Z" fill="#FC8688"/>
<path d="M36.9688 134.427C37.547 134.5 38.1095 134.615 38.6668 134.771C39.224 134.922 39.7553 135.12 40.2657 135.354C40.7761 135.589 41.2605 135.854 41.7084 136.156C42.1563 136.464 42.5678 136.792 42.9324 137.156C43.3022 137.516 43.6251 137.896 43.9011 138.302C44.1772 138.703 44.3959 139.125 44.5678 139.552C44.7397 139.984 44.8543 140.422 44.9115 140.87C44.9688 141.312 44.974 141.75 44.9168 142.187C44.8647 142.63 44.7553 143.052 44.5886 143.469C44.422 143.885 44.2032 144.281 43.9324 144.656C43.6615 145.036 43.3386 145.385 42.974 145.708C42.6095 146.036 42.2032 146.328 41.7553 146.583C41.3126 146.844 40.8334 147.062 40.323 147.25C39.8126 147.432 39.2813 147.573 38.7293 147.677C38.1772 147.776 37.6095 147.833 37.0313 147.849C36.4584 147.865 35.8803 147.839 35.3022 147.766C34.7293 147.693 34.1615 147.578 33.6095 147.422C33.0522 147.266 32.5209 147.073 32.0053 146.839C31.4949 146.604 31.0157 146.333 30.5678 146.031C30.1199 145.729 29.7084 145.396 29.3386 145.036C28.9688 144.677 28.6511 144.297 28.3751 143.891C28.099 143.484 27.8751 143.068 27.7084 142.635C27.5365 142.203 27.422 141.766 27.3647 141.323C27.3022 140.88 27.3022 140.437 27.3543 140C27.4115 139.562 27.5209 139.135 27.6876 138.724C27.8543 138.307 28.073 137.911 28.3438 137.531C28.6147 137.156 28.9324 136.807 29.297 136.479C29.6668 136.156 30.073 135.865 30.5157 135.604C30.9636 135.349 31.4428 135.125 31.9532 134.943C32.4584 134.76 32.9949 134.615 33.547 134.516C34.099 134.417 34.6668 134.354 35.2397 134.344C35.8178 134.328 36.3907 134.354 36.9688 134.427Z" fill="#FC8688"/>
<path d="M141.36 55.6198C142.073 59.6615 140.172 63.3803 137.099 63.9219C134.027 64.4688 130.943 61.6407 130.23 57.6042C129.511 53.5626 131.417 49.8438 134.49 49.2969C137.563 48.7501 140.636 51.5834 141.36 55.6198Z" fill="#FC8688"/>
<path d="M132.818 24.3958C132.906 24.875 132.958 25.3542 132.974 25.8333C132.989 26.3177 132.969 26.7917 132.911 27.2604C132.854 27.7292 132.76 28.1771 132.63 28.6146C132.5 29.0469 132.338 29.4583 132.14 29.8438C131.948 30.2292 131.724 30.5833 131.469 30.901C131.213 31.224 130.937 31.5052 130.635 31.75C130.333 31.9948 130.01 32.1979 129.672 32.3542C129.333 32.5156 128.979 32.625 128.614 32.6927C128.25 32.7604 127.885 32.7813 127.51 32.7552C127.135 32.724 126.765 32.651 126.396 32.5313C126.026 32.4063 125.661 32.2396 125.312 32.0313C124.958 31.8229 124.625 31.5729 124.307 31.2813C123.984 30.9896 123.687 30.6615 123.411 30.3021C123.14 29.9427 122.89 29.5521 122.672 29.1406C122.448 28.724 122.26 28.2865 122.104 27.8281C121.948 27.375 121.823 26.9063 121.734 26.4271C121.646 25.9531 121.594 25.4688 121.583 24.9896C121.568 24.5052 121.588 24.0313 121.646 23.5625C121.703 23.099 121.797 22.6458 121.927 22.2135C122.057 21.776 122.219 21.3698 122.411 20.9844C122.609 20.599 122.833 20.2448 123.083 19.9219C123.338 19.599 123.62 19.3177 123.922 19.0729C124.224 18.8281 124.541 18.625 124.885 18.4688C125.224 18.3073 125.573 18.1979 125.937 18.1302C126.302 18.0625 126.672 18.0417 127.047 18.0729C127.422 18.099 127.791 18.1719 128.161 18.2969C128.531 18.4167 128.89 18.5833 129.245 18.7917C129.594 19 129.932 19.2552 130.25 19.5417C130.568 19.8333 130.864 20.1615 131.14 20.5208C131.416 20.8802 131.666 21.2708 131.885 21.6875C132.104 22.1042 132.297 22.5365 132.453 22.9948C132.609 23.4479 132.729 23.9167 132.818 24.3958Z" fill="#FC8688"/>
<path d="M129.193 187.87C129.829 188.193 130.417 188.594 130.959 189.073C131.506 189.552 131.985 190.099 132.412 190.719C132.839 191.333 133.199 192.01 133.495 192.745C133.787 193.474 134.011 194.25 134.162 195.073C134.313 195.891 134.391 196.74 134.391 197.615C134.391 198.49 134.318 199.375 134.173 200.271C134.021 201.167 133.803 202.057 133.511 202.943C133.219 203.823 132.865 204.688 132.438 205.521C132.016 206.359 131.532 207.156 130.995 207.917C130.454 208.672 129.865 209.38 129.23 210.031C128.594 210.677 127.923 211.26 127.219 211.781C126.511 212.297 125.782 212.74 125.032 213.104C124.282 213.469 123.527 213.75 122.761 213.943C121.995 214.141 121.24 214.255 120.485 214.276C119.735 214.297 119.006 214.234 118.298 214.083C117.594 213.927 116.923 213.693 116.282 213.37C115.646 213.047 115.058 212.646 114.516 212.167C113.975 211.688 113.49 211.141 113.063 210.526C112.636 209.906 112.277 209.229 111.98 208.5C111.688 207.766 111.464 206.99 111.313 206.167C111.162 205.349 111.084 204.5 111.084 203.625C111.084 202.75 111.157 201.865 111.303 200.969C111.454 200.073 111.673 199.182 111.964 198.297C112.256 197.417 112.61 196.557 113.037 195.719C113.459 194.88 113.943 194.083 114.48 193.323C115.021 192.568 115.61 191.865 116.245 191.214C116.881 190.563 117.553 189.979 118.256 189.458C118.964 188.943 119.693 188.5 120.443 188.141C121.193 187.776 121.949 187.495 122.714 187.297C123.48 187.099 124.24 186.99 124.99 186.964C125.74 186.943 126.469 187.005 127.178 187.162C127.881 187.313 128.558 187.547 129.193 187.87Z" fill="#FC8688"/>
<path d="M107.546 227.453C107.968 227.667 108.364 227.938 108.729 228.255C109.088 228.573 109.411 228.943 109.697 229.354C109.984 229.766 110.223 230.219 110.416 230.708C110.614 231.198 110.765 231.714 110.864 232.266C110.963 232.813 111.015 233.375 111.015 233.964C111.02 234.547 110.968 235.135 110.869 235.734C110.77 236.333 110.624 236.932 110.432 237.521C110.234 238.109 109.994 238.688 109.713 239.245C109.432 239.802 109.109 240.339 108.749 240.844C108.385 241.349 107.994 241.823 107.572 242.255C107.145 242.688 106.697 243.078 106.223 243.427C105.755 243.771 105.265 244.068 104.765 244.307C104.265 244.552 103.76 244.74 103.249 244.87C102.739 245.005 102.229 245.078 101.729 245.094C101.229 245.109 100.739 245.068 100.265 244.964C99.7962 244.859 99.3483 244.703 98.9212 244.49C98.4941 244.271 98.0983 244.005 97.7389 243.688C97.3743 243.365 97.0514 243 96.7702 242.589C96.4837 242.172 96.2441 241.724 96.0462 241.234C95.8483 240.745 95.7025 240.224 95.5983 239.677C95.4993 239.13 95.4473 238.563 95.4473 237.979C95.4473 237.396 95.4941 236.802 95.5931 236.203C95.6921 235.604 95.8379 235.01 96.0358 234.422C96.2285 233.828 96.4681 233.255 96.7493 232.698C97.0358 232.135 97.3587 231.604 97.7181 231.099C98.0775 230.589 98.4681 230.12 98.8952 229.688C99.3171 229.25 99.7702 228.859 100.239 228.516C100.713 228.172 101.197 227.875 101.697 227.63C102.202 227.391 102.708 227.203 103.218 227.068C103.729 226.938 104.234 226.865 104.734 226.849C105.239 226.833 105.723 226.875 106.197 226.979C106.671 227.078 107.119 227.24 107.546 227.453Z" fill="#FC8688"/>
<path d="M87.6519 263.13C89.506 259.469 93.2664 257.641 96.0529 259.047C98.8446 260.458 99.5946 264.568 97.7404 268.229C95.8862 271.891 92.1258 273.719 89.3394 272.307C86.5477 270.901 85.7977 266.792 87.6519 263.13Z" fill="#FC8688"/>
<path d="M214.786 178.37C215.609 178.828 216.385 179.344 217.119 179.911C217.859 180.484 218.536 181.099 219.161 181.76C219.786 182.422 220.338 183.115 220.828 183.844C221.317 184.568 221.729 185.313 222.057 186.078C222.39 186.844 222.64 187.609 222.807 188.385C222.974 189.156 223.052 189.917 223.041 190.667C223.036 191.417 222.937 192.141 222.76 192.844C222.578 193.542 222.312 194.203 221.963 194.823C221.614 195.448 221.187 196.021 220.687 196.542C220.187 197.063 219.614 197.521 218.979 197.922C218.343 198.323 217.656 198.651 216.911 198.917C216.166 199.177 215.38 199.37 214.552 199.484C213.729 199.604 212.875 199.641 212 199.609C211.125 199.573 210.244 199.464 209.354 199.276C208.463 199.094 207.583 198.839 206.708 198.51C205.838 198.182 204.994 197.786 204.171 197.328C203.354 196.87 202.578 196.359 201.838 195.786C201.104 195.219 200.427 194.599 199.802 193.938C199.177 193.276 198.619 192.583 198.135 191.859C197.645 191.13 197.234 190.385 196.901 189.62C196.567 188.859 196.317 188.089 196.156 187.318C195.989 186.547 195.911 185.786 195.916 185.036C195.927 184.286 196.02 183.557 196.203 182.859C196.385 182.161 196.651 181.5 197 180.875C197.349 180.255 197.77 179.682 198.276 179.161C198.776 178.641 199.343 178.177 199.979 177.781C200.614 177.38 201.307 177.047 202.052 176.786C202.796 176.521 203.583 176.333 204.406 176.214C205.234 176.099 206.083 176.057 206.958 176.094C207.833 176.13 208.718 176.24 209.609 176.422C210.5 176.609 211.38 176.865 212.25 177.193C213.125 177.521 213.968 177.911 214.786 178.37Z" fill="#FC8688"/>
<path d="M247.25 203.021C247.797 203.328 248.318 203.672 248.807 204.052C249.297 204.432 249.755 204.844 250.172 205.287C250.588 205.729 250.958 206.193 251.286 206.677C251.609 207.162 251.885 207.662 252.109 208.172C252.328 208.682 252.495 209.193 252.604 209.708C252.719 210.224 252.771 210.734 252.766 211.234C252.76 211.734 252.693 212.219 252.573 212.688C252.453 213.156 252.276 213.599 252.042 214.016C251.807 214.427 251.526 214.813 251.193 215.162C250.854 215.505 250.474 215.813 250.052 216.083C249.625 216.349 249.167 216.573 248.667 216.745C248.172 216.922 247.646 217.047 247.094 217.125C246.542 217.203 245.974 217.229 245.391 217.208C244.802 217.182 244.213 217.109 243.62 216.99C243.026 216.865 242.437 216.693 241.854 216.474C241.271 216.255 240.708 215.995 240.156 215.688C239.609 215.38 239.094 215.037 238.599 214.656C238.109 214.276 237.656 213.865 237.239 213.422C236.823 212.979 236.448 212.516 236.125 212.031C235.797 211.547 235.521 211.047 235.302 210.537C235.078 210.026 234.911 209.516 234.802 209C234.693 208.484 234.635 207.974 234.646 207.474C234.651 206.969 234.713 206.484 234.833 206.021C234.953 205.552 235.13 205.109 235.364 204.693C235.599 204.276 235.88 203.896 236.219 203.547C236.552 203.198 236.932 202.891 237.359 202.625C237.781 202.359 238.245 202.136 238.739 201.964C239.239 201.787 239.76 201.656 240.312 201.583C240.864 201.505 241.432 201.474 242.021 201.5C242.604 201.521 243.193 201.599 243.786 201.719C244.385 201.844 244.974 202.016 245.552 202.234C246.135 202.453 246.703 202.714 247.25 203.021Z" fill="#FC8688"/>
<path d="M271.807 223.182C272.234 223.422 272.64 223.688 273.021 223.984C273.406 224.281 273.76 224.604 274.083 224.948C274.406 225.292 274.698 225.651 274.953 226.031C275.203 226.406 275.416 226.797 275.594 227.193C275.765 227.589 275.896 227.99 275.979 228.391C276.067 228.792 276.109 229.188 276.104 229.578C276.099 229.969 276.047 230.349 275.953 230.708C275.859 231.073 275.724 231.417 275.541 231.745C275.359 232.068 275.14 232.365 274.875 232.635C274.614 232.906 274.323 233.146 273.989 233.354C273.661 233.563 273.302 233.734 272.911 233.87C272.526 234.005 272.114 234.104 271.687 234.167C271.255 234.229 270.817 234.25 270.359 234.229C269.906 234.214 269.448 234.156 268.984 234.057C268.521 233.964 268.062 233.828 267.609 233.656C267.156 233.49 266.713 233.281 266.286 233.047C265.864 232.807 265.458 232.542 265.073 232.245C264.692 231.948 264.338 231.625 264.015 231.281C263.692 230.938 263.401 230.578 263.146 230.198C262.896 229.823 262.682 229.432 262.505 229.037C262.333 228.641 262.203 228.24 262.12 227.839C262.031 227.438 261.989 227.042 261.995 226.651C262 226.26 262.052 225.885 262.146 225.521C262.239 225.156 262.375 224.813 262.557 224.49C262.739 224.162 262.958 223.865 263.219 223.594C263.484 223.323 263.776 223.083 264.109 222.875C264.437 222.667 264.797 222.495 265.187 222.359C265.573 222.224 265.979 222.125 266.411 222.063C266.838 222.005 267.281 221.979 267.739 222C268.192 222.016 268.651 222.073 269.114 222.172C269.578 222.266 270.036 222.401 270.489 222.573C270.942 222.74 271.385 222.948 271.807 223.182Z" fill="#FC8688"/>
<path d="M143.098 146.266C142.426 148.448 145.369 150.333 147.004 151.104C147.655 151.412 148.338 151.635 149.041 151.787C149.744 151.932 150.457 152 151.176 151.979C151.895 151.964 152.603 151.865 153.301 151.682C153.999 151.5 154.666 151.24 155.301 150.906C155.937 150.568 156.525 150.162 157.067 149.693C157.608 149.219 158.093 148.688 158.51 148.104C158.931 147.521 159.275 146.896 159.551 146.229C159.822 145.563 160.015 144.875 160.129 144.167C160.218 143.823 160.176 143.5 160.015 143.188C159.853 142.875 159.608 142.656 159.286 142.526C158.942 142.417 158.608 142.448 158.286 142.609C157.968 142.776 157.754 143.031 157.645 143.375C157.447 143.99 157.176 144.563 156.827 145.104C156.478 145.646 156.067 146.13 155.582 146.563C155.103 146.99 154.577 147.349 153.999 147.635C153.426 147.922 152.822 148.13 152.187 148.255C151.556 148.38 150.916 148.417 150.275 148.375C149.635 148.328 149.01 148.198 148.4 147.979C147.796 147.766 147.223 147.474 146.697 147.109C146.166 146.74 145.697 146.313 145.286 145.818C145.155 145.672 145.004 145.557 144.827 145.479C144.655 145.396 144.468 145.359 144.275 145.359C144.082 145.359 143.9 145.396 143.723 145.479C143.546 145.557 143.395 145.672 143.27 145.818C143.187 145.958 143.129 146.104 143.098 146.266Z" fill="#686D79"/>
</svg>
