<svg width="44" height="35" viewBox="0 0 44 35" fill="none" xmlns="http://www.w3.org/2000/svg">
<mask id="path-1-inside-1_211_801" fill="white">
<path fill-rule="evenodd" clip-rule="evenodd" d="M1.57682 8.31948C1.10534 8.53689 0.706707 8.88136 0.427489 9.31264C0.148271 9.74392 0 10.2442 0 10.755C0 11.2658 0.148271 11.7661 0.427489 12.1974C0.706707 12.6287 1.10534 12.9732 1.57682 13.1906L5.50642 15.0091V25.5704C5.50642 27.5694 6.16868 29.8002 8.1005 31.1743C10.5352 32.8985 14.9704 35 22.0052 35C29.04 35 33.4643 32.8851 35.91 31.1743C37.8418 29.8056 38.5041 27.591 38.5041 25.5704V15.0091L41.252 13.7348V25.5623C41.252 25.9195 41.3968 26.2622 41.6545 26.5148C41.9121 26.7674 42.2616 26.9094 42.626 26.9094C42.9904 26.9094 43.3399 26.7674 43.5976 26.5148C43.8552 26.2622 44 25.9195 44 25.5623V10.7442C44.0001 10.234 43.8524 9.73425 43.5742 9.30308C43.2959 8.87191 42.8985 8.52708 42.4282 8.3087L26.7098 1.0344C25.2407 0.353279 23.6358 0 22.0107 0C20.3857 0 18.7808 0.353279 17.3117 1.0344L1.59331 8.3087L1.57682 8.31948ZM8.25439 25.5623V16.2673L17.2952 20.4703C18.7643 21.1514 20.3692 21.5047 21.9942 21.5047C23.6193 21.5047 25.2242 21.1514 26.6933 20.4703L35.7341 16.2673V25.5623C35.7341 27.0602 35.2395 28.2834 34.2777 28.9569C32.2881 30.366 28.4245 32.2977 21.9942 32.2977C15.564 32.2977 11.6894 30.3795 9.71081 28.9569C8.75177 28.278 8.25439 27.0468 8.25439 25.5623ZM18.4768 3.46995C19.5763 2.95933 20.7777 2.69447 21.9942 2.69447C23.2108 2.69447 24.4122 2.95933 25.5116 3.46995L41.23 10.7442L25.5116 18.0185C24.4122 18.5292 23.2108 18.794 21.9942 18.794C20.7777 18.794 19.5763 18.5292 18.4768 18.0185L2.75845 10.7442L18.4768 3.46995Z"/>
</mask>
<path d="M1.57682 8.31948L2.83309 11.0438L3.0334 10.9514L3.21805 10.8307L1.57682 8.31948ZM0 10.755L3 10.755L0 10.755ZM1.57682 13.1906L2.8368 10.468L2.83309 10.4663L1.57682 13.1906ZM5.50642 15.0091H8.50642V13.0918L6.7664 12.2866L5.50642 15.0091ZM8.1005 31.1743L6.36168 33.619L6.36665 33.6225L8.1005 31.1743ZM35.91 31.1743L37.6296 33.6325L37.6369 33.6274L37.6443 33.6222L35.91 31.1743ZM38.5041 15.0091L37.2419 12.2876L35.5041 13.0935V15.0091H38.5041ZM41.252 13.7348H44.252V9.03668L39.9899 11.0132L41.252 13.7348ZM44 10.7442L41 10.7436V10.7442H44ZM42.4282 8.3087L43.6915 5.58769L43.6881 5.58612L42.4282 8.3087ZM26.7098 1.0344L25.4479 3.75611L25.4498 3.75698L26.7098 1.0344ZM17.3117 1.0344L18.5717 3.75698L18.5736 3.75611L17.3117 1.0344ZM1.59331 8.3087L0.333325 5.58612L0.135004 5.6779L-0.0479228 5.79746L1.59331 8.3087ZM8.25439 16.2673L9.51906 13.5469L5.25439 11.5643V16.2673H8.25439ZM17.2952 20.4703L16.0305 23.1907L16.0333 23.192L17.2952 20.4703ZM21.9942 21.5047L21.9942 24.5047L21.9942 21.5047ZM26.6933 20.4703L27.9552 23.192L27.9579 23.1907L26.6933 20.4703ZM35.7341 16.2673H38.7341V11.5643L34.4694 13.5469L35.7341 16.2673ZM34.2777 28.9569L32.5568 26.4996L32.5503 26.5042L32.5438 26.5088L34.2777 28.9569ZM9.71081 28.9569L11.4621 26.5212L11.4532 26.5147L11.4442 26.5084L9.71081 28.9569ZM18.4768 3.46995L19.7368 6.19253L19.7405 6.19083L18.4768 3.46995ZM25.5116 3.46995L24.248 6.19083L24.2517 6.19253L25.5116 3.46995ZM41.23 10.7442L42.49 13.4668L48.373 10.7442L42.49 8.02167L41.23 10.7442ZM25.5116 18.0185L24.2517 15.296L24.248 15.2977L25.5116 18.0185ZM18.4768 18.0185L19.7405 15.2977L19.7368 15.296L18.4768 18.0185ZM2.75845 10.7442L1.49847 8.02167L-4.38452 10.7442L1.49847 13.4668L2.75845 10.7442ZM0.32055 5.59518C-0.660904 6.04777 -1.49951 6.76893 -2.09081 7.68225L2.94579 10.943C2.91292 10.9938 2.87159 11.026 2.83309 11.0438L0.32055 5.59518ZM-2.09081 7.68225C-2.68251 8.59619 -3 9.66211 -3 10.755L3 10.755C3 10.8263 2.97905 10.8916 2.94579 10.943L-2.09081 7.68225ZM-3 10.755C-3 11.8479 -2.68251 12.9139 -2.09081 13.8278L2.94579 10.567C2.97905 10.6184 3 10.6838 3 10.755L-3 10.755ZM-2.09081 13.8278C-1.49951 14.7411 -0.660907 15.4623 0.32055 15.9149L2.83309 10.4663C2.87159 10.484 2.91292 10.5163 2.94579 10.567L-2.09081 13.8278ZM0.316838 15.9131L4.24644 17.7317L6.7664 12.2866L2.8368 10.468L0.316838 15.9131ZM2.50642 15.0091V25.5704H8.50642V15.0091H2.50642ZM2.50642 25.5704C2.50642 28.1405 3.36096 31.4846 6.36169 33.6189L9.83932 28.7296C8.9764 28.1158 8.50642 26.9983 8.50642 25.5704H2.50642ZM6.36665 33.6225C9.29278 35.6948 14.3306 38 22.0052 38V32C15.6103 32 11.7776 30.1023 9.83435 28.726L6.36665 33.6225ZM22.0052 38C29.6893 38 34.7084 35.6759 37.6296 33.6325L34.1904 28.716C32.2201 30.0942 28.3908 32 22.0052 32V38ZM37.6443 33.6222C40.6488 31.4935 41.5041 28.1629 41.5041 25.5704H35.5041C35.5041 27.0191 35.0348 28.1177 34.1757 28.7263L37.6443 33.6222ZM41.5041 25.5704V15.0091H35.5041V25.5704H41.5041ZM39.7662 17.7307L42.5141 16.4564L39.9899 11.0132L37.2419 12.2876L39.7662 17.7307ZM38.252 13.7348V25.5623H44.252V13.7348H38.252ZM38.252 25.5623C38.252 26.7346 38.7276 27.8465 39.5542 28.657L43.7547 24.3726C44.066 24.6778 44.252 25.1045 44.252 25.5623H38.252ZM39.5542 28.657C40.3788 29.4655 41.4849 29.9094 42.626 29.9094V23.9094C43.0383 23.9094 43.4454 24.0694 43.7547 24.3726L39.5542 28.657ZM42.626 29.9094C43.7671 29.9094 44.8732 29.4655 45.6978 28.657L41.4973 24.3726C41.8066 24.0694 42.2137 23.9094 42.626 23.9094V29.9094ZM45.6978 28.657C46.5244 27.8465 47 26.7346 47 25.5623H41C41 25.1045 41.186 24.6778 41.4973 24.3726L45.6978 28.657ZM47 25.5623V10.7442H41V25.5623H47ZM47 10.7449C47.0002 9.65387 46.6842 8.58957 46.0948 7.67632L41.0535 10.9298C41.0207 10.8789 41 10.8142 41 10.7436L47 10.7449ZM46.0948 7.67632C45.5058 6.76369 44.6702 6.04208 43.6915 5.58769L41.1648 11.0297C41.1268 11.0121 41.086 10.9801 41.0535 10.9298L46.0948 7.67632ZM43.6881 5.58612L27.9697 -1.68818L25.4498 3.75698L41.1682 11.0313L43.6881 5.58612ZM27.9716 -1.6873C26.1057 -2.55243 24.07 -3 22.0107 -3V3C23.2016 3 24.3757 3.25899 25.4479 3.75611L27.9716 -1.6873ZM22.0107 -3C19.9514 -3 17.9158 -2.55243 16.0498 -1.6873L18.5736 3.75611C19.6458 3.25899 20.8199 3 22.0107 3V-3ZM16.0517 -1.68818L0.333325 5.58612L2.85329 11.0313L18.5717 3.75698L16.0517 -1.68818ZM-0.0479228 5.79746L-0.0644105 5.80823L3.21805 10.8307L3.23454 10.82L-0.0479228 5.79746ZM11.2544 25.5623V16.2673H5.25439V25.5623H11.2544ZM6.98972 18.9877L16.0305 23.1907L18.5599 17.7499L9.51906 13.5469L6.98972 18.9877ZM16.0333 23.192C17.8993 24.0571 19.9349 24.5047 21.9942 24.5047L21.9942 18.5047C20.8034 18.5047 19.6293 18.2457 18.5571 17.7486L16.0333 23.192ZM21.9942 24.5047C24.0536 24.5047 26.0892 24.0571 27.9552 23.192L25.4314 17.7486C24.3592 18.2457 23.1851 18.5047 21.9942 18.5047L21.9942 24.5047ZM27.9579 23.1907L36.9988 18.9877L34.4694 13.5469L25.4286 17.7499L27.9579 23.1907ZM32.7341 16.2673V25.5623H38.7341V16.2673H32.7341ZM32.7341 25.5623C32.7341 25.9916 32.662 26.2617 32.6031 26.4012C32.5498 26.5272 32.5188 26.5262 32.5568 26.4996L35.9986 31.4143C38.0351 29.9881 38.7341 27.65 38.7341 25.5623H32.7341ZM32.5438 26.5088C31.0352 27.5772 27.7722 29.2977 21.9942 29.2977V35.2977C29.0768 35.2977 33.5411 33.1548 36.0116 31.4051L32.5438 26.5088ZM21.9942 29.2977C16.2049 29.2977 12.9406 27.5842 11.4621 26.5212L7.95954 31.3927C10.4381 33.1748 14.9231 35.2977 21.9942 35.2977V29.2977ZM11.4442 26.5084C11.479 26.533 11.443 26.5279 11.3866 26.3944C11.3254 26.2496 11.2544 25.9795 11.2544 25.5623H5.25439C5.25439 27.644 5.95994 29.9772 7.97742 31.4055L11.4442 26.5084ZM19.7405 6.19083C20.4426 5.86476 21.2126 5.69447 21.9942 5.69447V-0.305533C20.3428 -0.305533 18.71 0.0539106 17.2132 0.749061L19.7405 6.19083ZM21.9942 5.69447C22.7759 5.69447 23.5459 5.86476 24.248 6.19083L26.7753 0.749061C25.2785 0.0539103 23.6457 -0.305533 21.9942 -0.305533V5.69447ZM24.2517 6.19253L39.9701 13.4668L42.49 8.02167L26.7716 0.747364L24.2517 6.19253ZM39.9701 8.02167L24.2517 15.296L26.7716 20.7411L42.49 13.4668L39.9701 8.02167ZM24.248 15.2977C23.5459 15.6237 22.7759 15.794 21.9942 15.794V21.794C23.6457 21.794 25.2785 21.4346 26.7753 20.7394L24.248 15.2977ZM21.9942 15.794C21.2126 15.794 20.4426 15.6237 19.7405 15.2977L17.2132 20.7394C18.71 21.4346 20.3428 21.794 21.9942 21.794V15.794ZM19.7368 15.296L4.01843 8.02167L1.49847 13.4668L17.2169 20.7411L19.7368 15.296ZM4.01843 13.4668L19.7368 6.19253L17.2169 0.747364L1.49847 8.02167L4.01843 13.4668Z" fill="#3E5467" mask="url(#path-1-inside-1_211_801)"/>
<path d="M1.57682 8.31948L2.83309 11.0438L3.0334 10.9514L3.21805 10.8307L1.57682 8.31948ZM0 10.755L3 10.755L0 10.755ZM1.57682 13.1906L2.8368 10.468L2.83309 10.4663L1.57682 13.1906ZM5.50642 15.0091H8.50642V13.0918L6.7664 12.2866L5.50642 15.0091ZM8.1005 31.1743L6.36168 33.619L6.36665 33.6225L8.1005 31.1743ZM35.91 31.1743L37.6296 33.6325L37.6369 33.6274L37.6443 33.6222L35.91 31.1743ZM38.5041 15.0091L37.2419 12.2876L35.5041 13.0935V15.0091H38.5041ZM41.252 13.7348H44.252V9.03668L39.9899 11.0132L41.252 13.7348ZM44 10.7442L41 10.7436V10.7442H44ZM42.4282 8.3087L43.6915 5.58769L43.6881 5.58612L42.4282 8.3087ZM26.7098 1.0344L25.4479 3.75611L25.4498 3.75698L26.7098 1.0344ZM17.3117 1.0344L18.5717 3.75698L18.5736 3.75611L17.3117 1.0344ZM1.59331 8.3087L0.333325 5.58612L0.135004 5.6779L-0.0479228 5.79746L1.59331 8.3087ZM8.25439 16.2673L9.51906 13.5469L5.25439 11.5643V16.2673H8.25439ZM17.2952 20.4703L16.0305 23.1907L16.0333 23.192L17.2952 20.4703ZM21.9942 21.5047L21.9942 24.5047L21.9942 21.5047ZM26.6933 20.4703L27.9552 23.192L27.9579 23.1907L26.6933 20.4703ZM35.7341 16.2673H38.7341V11.5643L34.4694 13.5469L35.7341 16.2673ZM34.2777 28.9569L32.5568 26.4996L32.5503 26.5042L32.5438 26.5088L34.2777 28.9569ZM9.71081 28.9569L11.4621 26.5212L11.4532 26.5147L11.4442 26.5084L9.71081 28.9569ZM18.4768 3.46995L19.7368 6.19253L19.7405 6.19083L18.4768 3.46995ZM25.5116 3.46995L24.248 6.19083L24.2517 6.19253L25.5116 3.46995ZM41.23 10.7442L42.49 13.4668L48.373 10.7442L42.49 8.02167L41.23 10.7442ZM25.5116 18.0185L24.2517 15.296L24.248 15.2977L25.5116 18.0185ZM18.4768 18.0185L19.7405 15.2977L19.7368 15.296L18.4768 18.0185ZM2.75845 10.7442L1.49847 8.02167L-4.38452 10.7442L1.49847 13.4668L2.75845 10.7442ZM0.32055 5.59518C-0.660904 6.04777 -1.49951 6.76893 -2.09081 7.68225L2.94579 10.943C2.91292 10.9938 2.87159 11.026 2.83309 11.0438L0.32055 5.59518ZM-2.09081 7.68225C-2.68251 8.59619 -3 9.66211 -3 10.755L3 10.755C3 10.8263 2.97905 10.8916 2.94579 10.943L-2.09081 7.68225ZM-3 10.755C-3 11.8479 -2.68251 12.9139 -2.09081 13.8278L2.94579 10.567C2.97905 10.6184 3 10.6838 3 10.755L-3 10.755ZM-2.09081 13.8278C-1.49951 14.7411 -0.660907 15.4623 0.32055 15.9149L2.83309 10.4663C2.87159 10.484 2.91292 10.5163 2.94579 10.567L-2.09081 13.8278ZM0.316838 15.9131L4.24644 17.7317L6.7664 12.2866L2.8368 10.468L0.316838 15.9131ZM2.50642 15.0091V25.5704H8.50642V15.0091H2.50642ZM2.50642 25.5704C2.50642 28.1405 3.36096 31.4846 6.36169 33.6189L9.83932 28.7296C8.9764 28.1158 8.50642 26.9983 8.50642 25.5704H2.50642ZM6.36665 33.6225C9.29278 35.6948 14.3306 38 22.0052 38V32C15.6103 32 11.7776 30.1023 9.83435 28.726L6.36665 33.6225ZM22.0052 38C29.6893 38 34.7084 35.6759 37.6296 33.6325L34.1904 28.716C32.2201 30.0942 28.3908 32 22.0052 32V38ZM37.6443 33.6222C40.6488 31.4935 41.5041 28.1629 41.5041 25.5704H35.5041C35.5041 27.0191 35.0348 28.1177 34.1757 28.7263L37.6443 33.6222ZM41.5041 25.5704V15.0091H35.5041V25.5704H41.5041ZM39.7662 17.7307L42.5141 16.4564L39.9899 11.0132L37.2419 12.2876L39.7662 17.7307ZM38.252 13.7348V25.5623H44.252V13.7348H38.252ZM38.252 25.5623C38.252 26.7346 38.7276 27.8465 39.5542 28.657L43.7547 24.3726C44.066 24.6778 44.252 25.1045 44.252 25.5623H38.252ZM39.5542 28.657C40.3788 29.4655 41.4849 29.9094 42.626 29.9094V23.9094C43.0383 23.9094 43.4454 24.0694 43.7547 24.3726L39.5542 28.657ZM42.626 29.9094C43.7671 29.9094 44.8732 29.4655 45.6978 28.657L41.4973 24.3726C41.8066 24.0694 42.2137 23.9094 42.626 23.9094V29.9094ZM45.6978 28.657C46.5244 27.8465 47 26.7346 47 25.5623H41C41 25.1045 41.186 24.6778 41.4973 24.3726L45.6978 28.657ZM47 25.5623V10.7442H41V25.5623H47ZM47 10.7449C47.0002 9.65387 46.6842 8.58957 46.0948 7.67632L41.0535 10.9298C41.0207 10.8789 41 10.8142 41 10.7436L47 10.7449ZM46.0948 7.67632C45.5058 6.76369 44.6702 6.04208 43.6915 5.58769L41.1648 11.0297C41.1268 11.0121 41.086 10.9801 41.0535 10.9298L46.0948 7.67632ZM43.6881 5.58612L27.9697 -1.68818L25.4498 3.75698L41.1682 11.0313L43.6881 5.58612ZM27.9716 -1.6873C26.1057 -2.55243 24.07 -3 22.0107 -3V3C23.2016 3 24.3757 3.25899 25.4479 3.75611L27.9716 -1.6873ZM22.0107 -3C19.9514 -3 17.9158 -2.55243 16.0498 -1.6873L18.5736 3.75611C19.6458 3.25899 20.8199 3 22.0107 3V-3ZM16.0517 -1.68818L0.333325 5.58612L2.85329 11.0313L18.5717 3.75698L16.0517 -1.68818ZM-0.0479228 5.79746L-0.0644105 5.80823L3.21805 10.8307L3.23454 10.82L-0.0479228 5.79746ZM11.2544 25.5623V16.2673H5.25439V25.5623H11.2544ZM6.98972 18.9877L16.0305 23.1907L18.5599 17.7499L9.51906 13.5469L6.98972 18.9877ZM16.0333 23.192C17.8993 24.0571 19.9349 24.5047 21.9942 24.5047L21.9942 18.5047C20.8034 18.5047 19.6293 18.2457 18.5571 17.7486L16.0333 23.192ZM21.9942 24.5047C24.0536 24.5047 26.0892 24.0571 27.9552 23.192L25.4314 17.7486C24.3592 18.2457 23.1851 18.5047 21.9942 18.5047L21.9942 24.5047ZM27.9579 23.1907L36.9988 18.9877L34.4694 13.5469L25.4286 17.7499L27.9579 23.1907ZM32.7341 16.2673V25.5623H38.7341V16.2673H32.7341ZM32.7341 25.5623C32.7341 25.9916 32.662 26.2617 32.6031 26.4012C32.5498 26.5272 32.5188 26.5262 32.5568 26.4996L35.9986 31.4143C38.0351 29.9881 38.7341 27.65 38.7341 25.5623H32.7341ZM32.5438 26.5088C31.0352 27.5772 27.7722 29.2977 21.9942 29.2977V35.2977C29.0768 35.2977 33.5411 33.1548 36.0116 31.4051L32.5438 26.5088ZM21.9942 29.2977C16.2049 29.2977 12.9406 27.5842 11.4621 26.5212L7.95954 31.3927C10.4381 33.1748 14.9231 35.2977 21.9942 35.2977V29.2977ZM11.4442 26.5084C11.479 26.533 11.443 26.5279 11.3866 26.3944C11.3254 26.2496 11.2544 25.9795 11.2544 25.5623H5.25439C5.25439 27.644 5.95994 29.9772 7.97742 31.4055L11.4442 26.5084ZM19.7405 6.19083C20.4426 5.86476 21.2126 5.69447 21.9942 5.69447V-0.305533C20.3428 -0.305533 18.71 0.0539106 17.2132 0.749061L19.7405 6.19083ZM21.9942 5.69447C22.7759 5.69447 23.5459 5.86476 24.248 6.19083L26.7753 0.749061C25.2785 0.0539103 23.6457 -0.305533 21.9942 -0.305533V5.69447ZM24.2517 6.19253L39.9701 13.4668L42.49 8.02167L26.7716 0.747364L24.2517 6.19253ZM39.9701 8.02167L24.2517 15.296L26.7716 20.7411L42.49 13.4668L39.9701 8.02167ZM24.248 15.2977C23.5459 15.6237 22.7759 15.794 21.9942 15.794V21.794C23.6457 21.794 25.2785 21.4346 26.7753 20.7394L24.248 15.2977ZM21.9942 15.794C21.2126 15.794 20.4426 15.6237 19.7405 15.2977L17.2132 20.7394C18.71 21.4346 20.3428 21.794 21.9942 21.794V15.794ZM19.7368 15.296L4.01843 8.02167L1.49847 13.4668L17.2169 20.7411L19.7368 15.296ZM4.01843 13.4668L19.7368 6.19253L17.2169 0.747364L1.49847 8.02167L4.01843 13.4668Z" fill="black" fill-opacity="0.2" mask="url(#path-1-inside-1_211_801)"/>
</svg>
