<svg width="44" height="44" viewBox="0 0 44 44" fill="none" xmlns="http://www.w3.org/2000/svg">
<path d="M19.8 35.2H24.2V30.8H19.8V35.2ZM22 0C19.1109 0 16.2501 0.569047 13.581 1.67465C10.9118 2.78025 8.48654 4.40076 6.44365 6.44365C2.31785 10.5695 0 16.1652 0 22C0 27.8348 2.31785 33.4305 6.44365 37.5563C8.48654 39.5992 10.9118 41.2197 13.581 42.3254C16.2501 43.431 19.1109 44 22 44C27.8348 44 33.4305 41.6822 37.5563 37.5563C41.6822 33.4305 44 27.8348 44 22C44 19.1109 43.431 16.2501 42.3254 13.581C41.2197 10.9118 39.5992 8.48654 37.5563 6.44365C35.5135 4.40076 33.0882 2.78025 30.419 1.67465C27.7499 0.569047 24.8891 0 22 0ZM22 39.6C12.298 39.6 4.4 31.702 4.4 22C4.4 12.298 12.298 4.4 22 4.4C31.702 4.4 39.6 12.298 39.6 22C39.6 31.702 31.702 39.6 22 39.6ZM22 8.8C19.6661 8.8 17.4278 9.72714 15.7775 11.3775C14.1271 13.0278 13.2 15.2661 13.2 17.6H17.6C17.6 16.433 18.0636 15.3139 18.8887 14.4887C19.7139 13.6636 20.833 13.2 22 13.2C23.167 13.2 24.2861 13.6636 25.1113 14.4887C25.9364 15.3139 26.4 16.433 26.4 17.6C26.4 22 19.8 21.45 19.8 28.6H24.2C24.2 23.65 30.8 23.1 30.8 17.6C30.8 15.2661 29.8729 13.0278 28.2225 11.3775C26.5722 9.72714 24.3339 8.8 22 8.8Z" fill="#3E5467"/>
</svg>
