<svg width="166" height="147" viewBox="0 0 166 147" fill="none" xmlns="http://www.w3.org/2000/svg">
<mask id="mask0_157_62" style="mask-type:luminance" maskUnits="userSpaceOnUse" x="0" y="0" width="166" height="147">
<path d="M129.899 0L0.501479 46.123L36.2978 146.549L165.696 100.426L129.899 0Z" fill="white"/>
</mask>
<g mask="url(#mask0_157_62)">
<path d="M17.0946 91.2548C16.0204 89.1829 15.0888 87.016 14.2904 84.7968C14.2896 84.7946 14.2889 84.7925 14.2873 84.7881C14.1556 84.4186 14.0253 84.0461 13.8993 83.6721C13.9015 83.6713 13.9066 83.6719 13.9088 83.6711C13.125 81.3487 12.4784 78.9847 11.9807 76.6191C11.9799 76.617 11.9791 76.6148 11.9791 76.6148C11.8714 76.0995 11.771 75.5841 11.6757 75.0693C11.6757 75.0693 11.6749 75.0671 11.6741 75.0649C11.4555 73.8811 11.269 72.6981 11.1186 71.5268C18.7371 71.4081 25.8377 75.0118 32.7264 78.2548C35.3232 79.4778 38.012 80.6704 40.7554 81.6108C41.1296 81.7395 41.5037 81.861 41.8791 81.9795C41.9151 81.9912 41.9511 82.0029 41.9871 82.0145C42.3618 82.1309 42.7341 82.2407 43.11 82.3468C43.1533 82.3583 43.1944 82.3706 43.2378 82.3821C43.5153 82.4596 43.7926 82.5298 44.0721 82.5992C43.6595 75.8743 44.7407 69.4499 47.0075 63.5338C46.8754 63.4315 46.7484 63.3224 46.6191 63.2141C46.5693 63.1706 46.5173 63.1279 46.4668 63.0822C46.3293 62.9646 46.1962 62.8455 46.0637 62.7212C46.0168 62.6791 45.9714 62.6341 45.9238 62.5898C45.7905 62.4634 45.6616 62.3354 45.5341 62.2044C45.4923 62.163 45.4528 62.1207 45.411 62.0792C45.2812 61.9418 45.1513 61.8043 45.0272 61.6624C44.9951 61.6273 44.9622 61.59 44.9323 61.5541C44.8008 61.405 44.6728 61.2522 44.5492 61.0978C44.5282 61.0734 44.5095 61.0483 44.4907 61.0231C44.3581 60.8572 44.2282 60.6855 44.1036 60.5143C44.105 60.5114 44.1071 60.5106 44.1085 60.5076C43.5247 59.7015 43.0237 58.8388 42.6353 57.914C41.013 54.0432 41.5542 49.1833 44.4832 46.1695C46.6831 43.9081 50.0283 42.7427 51.5516 39.985C53.0448 37.287 52.4404 33.612 54.5166 31.3334C58.2496 27.2418 65.7361 31.9352 70.4195 28.9772C73.4464 27.0702 73.9466 22.803 76.4291 20.2277C79.0675 17.4915 83.6451 17.2612 86.9832 19.0725C90.3234 20.883 92.5117 24.3487 93.6022 27.9852C93.6091 28.0048 93.6139 28.0251 93.6187 28.0455C93.6195 28.0476 93.6195 28.0476 93.6203 28.0498C93.7324 28.4263 93.8323 28.8096 93.9241 29.191C93.9418 29.268 93.9646 29.3456 93.9822 29.4226C94.5279 29.3726 95.0767 29.3314 95.6256 29.2974C95.6583 29.2931 95.6897 29.2917 95.7211 29.2903C96.3925 29.2495 97.0648 29.2181 97.7396 29.2005C97.7571 29.2016 97.7717 29.2013 97.7885 29.2002C99.1724 29.165 100.565 29.183 101.962 29.2534C101.979 29.2523 101.998 29.2556 102.014 29.2545C102.688 29.2888 103.362 29.3376 104.034 29.3945C104.084 29.3986 104.136 29.4048 104.184 29.4097C104.83 29.4686 105.474 29.5378 106.12 29.6186C106.187 29.6267 106.254 29.6348 106.321 29.6451C106.952 29.7262 107.586 29.819 108.221 29.9234C108.291 29.9351 108.362 29.9489 108.435 29.9598C109.07 30.0664 109.706 30.1854 110.34 30.3168C110.404 30.3286 110.467 30.3426 110.53 30.3545C111.184 30.4913 111.838 30.6406 112.488 30.8031C112.531 30.8124 112.574 30.8218 112.615 30.834C113.308 31.0059 113.999 31.193 114.688 31.3934C115.334 31.5822 115.974 31.7829 116.61 31.9946C116.663 32.0124 116.717 32.0274 116.77 32.0453C117.378 32.2524 117.984 32.4676 118.584 32.6946C118.658 32.7223 118.731 32.75 118.805 32.7777C119.395 33.0034 119.982 33.2402 120.562 33.4866C120.638 33.5208 120.715 33.5521 120.791 33.5863C121.372 33.8348 121.948 34.0974 122.518 34.3696C122.585 34.3996 122.651 34.4325 122.716 34.4655C123.299 34.7454 123.875 35.0349 124.443 35.3371C124.487 35.3632 124.532 35.3863 124.575 35.4103C125.165 35.7265 125.749 36.0524 126.324 36.3938C126.333 36.398 126.34 36.403 126.348 36.4072C126.884 36.726 127.41 37.0553 127.932 37.3934C128.074 37.4876 128.212 37.5803 128.353 37.6723C128.786 37.959 129.211 38.2531 129.632 38.5539C129.704 38.6042 129.776 38.6495 129.847 38.7028L129.845 38.7035C135.074 42.4867 139.483 47.405 142.573 53.4914C143.126 52.8435 143.756 52.2466 144.526 51.8912C145.34 51.5131 146.326 51.4358 147.116 51.8575C149.823 53.3081 149.045 56.954 147.519 59.8548C150.395 61.1669 153.02 63.4185 151.888 66.1374C151.545 66.9627 150.729 67.5278 149.863 67.7486C148.996 67.9716 148.079 67.892 147.202 67.7218C147.063 67.6955 146.927 67.6581 146.791 67.6259C146.866 68.3243 146.914 69.0248 146.954 69.7261C146.955 69.7283 146.952 69.7291 146.952 69.7291C147.138 73.0807 146.921 76.453 146.34 79.7642C146.326 79.8477 146.311 79.9312 146.298 80.0168C146.23 80.3839 146.156 80.7533 146.08 81.1184C146.052 81.2584 146.025 81.3955 145.996 81.5333C145.924 81.8676 145.845 82.197 145.767 82.5285C145.725 82.7002 145.684 82.8718 145.64 83.0442C145.565 83.3502 145.485 83.6533 145.402 83.9572C145.348 84.1554 145.292 84.3514 145.235 84.5482C145.154 84.8294 145.071 85.1114 144.985 85.392C144.924 85.5926 144.859 85.7946 144.794 85.9967C144.794 85.9967 144.794 85.9967 144.792 85.9997C144.787 86.0136 144.783 86.0276 144.778 86.0437C144.695 86.3038 144.61 86.5618 144.522 86.8213C144.44 87.0587 144.353 87.2956 144.268 87.5316C144.255 87.5655 144.245 87.5985 144.232 87.6323C144.231 87.6353 144.228 87.6412 144.227 87.6441C144.154 87.8464 144.083 88.0435 144.007 88.2443C143.908 88.5025 143.804 88.7602 143.702 89.017C143.681 89.0685 143.66 89.12 143.642 89.1708C143.624 89.2113 143.609 89.251 143.594 89.2908C143.544 89.4115 143.494 89.5344 143.444 89.6552C143.32 89.9519 143.189 90.2458 143.06 90.5419C143.042 90.5824 143.025 90.6229 143.008 90.6634C142.973 90.7371 142.939 90.8152 142.906 90.8933C142.882 90.9434 142.861 90.9949 142.836 91.048C142.626 91.51 142.407 91.9678 142.182 92.4228C141.949 92.8904 141.705 93.3545 141.454 93.8166C141.371 93.9687 141.284 94.1172 141.198 94.2679C141.026 94.5765 140.852 94.886 140.672 95.1904C140.647 95.2311 140.625 95.2731 140.601 95.316C140.518 95.4534 140.431 95.5874 140.348 95.7248C140.181 95.9998 140.012 96.2734 139.839 96.5455C139.72 96.7327 139.597 96.9162 139.476 97.1012C139.303 97.3639 139.131 97.6237 138.952 97.8836C138.825 98.0708 138.693 98.2575 138.563 98.4434C138.384 98.696 138.202 98.9494 138.017 99.1992C137.88 99.3852 137.743 99.5713 137.604 99.753C137.414 100.004 137.223 100.251 137.03 100.499C136.944 100.608 136.861 100.721 136.775 100.83C136.719 100.899 136.66 100.967 136.604 101.036C136.402 101.289 136.194 101.537 135.986 101.785C135.844 101.956 135.704 102.126 135.558 102.295C135.336 102.553 135.108 102.811 134.878 103.067C134.744 103.22 134.61 103.373 134.473 103.525C134.203 103.819 133.929 104.111 133.653 104.4C133.561 104.499 133.473 104.597 133.379 104.696C133.368 104.708 133.355 104.719 133.344 104.731C132.959 105.128 132.57 105.521 132.174 105.91C132.098 105.983 132.018 106.056 131.942 106.13C131.62 106.443 131.297 106.754 130.965 107.059C130.82 107.196 130.671 107.327 130.523 107.461C130.256 107.703 129.99 107.945 129.719 108.181C129.549 108.332 129.378 108.477 129.207 108.623C128.952 108.842 128.694 109.061 128.436 109.278C128.255 109.428 128.07 109.577 127.886 109.727C127.631 109.935 127.374 110.141 127.114 110.347C126.927 110.494 126.734 110.641 126.544 110.788C126.285 110.99 126.022 111.187 125.759 111.384C125.566 111.528 125.37 111.674 125.176 111.817C124.907 112.011 124.638 112.204 124.366 112.397C124.173 112.535 123.977 112.673 123.781 112.809C123.499 113.002 123.215 113.194 122.93 113.384C122.741 113.513 122.551 113.642 122.358 113.767C122.05 113.967 121.739 114.167 121.429 114.363C121.254 114.471 121.084 114.584 120.912 114.692C120.518 114.935 120.124 115.171 119.726 115.406C119.631 115.464 119.535 115.523 119.437 115.58C118.943 115.871 118.446 116.153 117.943 116.433C117.796 116.515 117.647 116.593 117.499 116.672C117.143 116.868 116.785 117.061 116.424 117.249C116.228 117.353 116.03 117.451 115.834 117.553C115.519 117.714 115.201 117.874 114.884 118.031C114.668 118.137 114.451 118.239 114.236 118.343C113.932 118.488 113.627 118.633 113.322 118.776C113.097 118.879 112.871 118.981 112.646 119.083C112.343 119.218 112.043 119.352 111.739 119.482C111.51 119.581 111.281 119.68 111.048 119.778C110.746 119.905 110.443 120.03 110.136 120.152C109.905 120.247 109.675 120.338 109.443 120.428C109.131 120.552 108.821 120.67 108.509 120.786C108.356 120.843 108.204 120.904 108.048 120.962C107.974 120.989 107.899 121.013 107.825 121.039C107.501 121.16 107.173 121.272 106.849 121.385C106.777 121.41 106.704 121.434 106.631 121.46C106.487 121.511 106.343 121.56 106.199 121.609C105.84 121.73 105.479 121.844 105.117 121.958L105.115 121.959C105.032 121.986 104.946 122.014 104.862 122.039C104.761 122.073 104.661 122.106 104.561 122.137C104.027 122.3 103.493 122.459 102.956 122.608C102.954 122.609 102.951 122.61 102.949 122.611C102.905 122.624 102.858 122.636 102.811 122.648C102.808 122.649 102.806 122.649 102.804 122.65C102.294 122.793 101.784 122.928 101.271 123.057C101.076 123.107 100.881 123.152 100.686 123.197C100.328 123.285 99.9694 123.371 99.6105 123.45C99.5364 123.469 99.4586 123.485 99.383 123.5C99.2334 123.533 99.0851 123.564 98.9354 123.598L98.9325 123.597C98.6026 123.668 98.2748 123.738 97.9448 123.802C97.7071 123.85 97.47 123.892 97.2329 123.935C96.9138 123.995 96.5938 124.053 96.2744 124.105C96.094 124.135 95.9158 124.165 95.7346 124.193C95.6721 124.203 95.6073 124.213 95.5448 124.223C95.229 124.272 94.9154 124.32 94.6024 124.363L94.6003 124.364C94.355 124.398 94.1119 124.43 93.868 124.461C93.868 124.461 93.868 124.461 93.8658 124.462C93.552 124.503 93.2367 124.539 92.9207 124.573C92.9185 124.574 92.9141 124.576 92.9112 124.574C92.6709 124.601 92.4327 124.627 92.1938 124.651C92.1938 124.651 92.1938 124.651 92.1916 124.652C91.8718 124.683 91.5534 124.71 91.2343 124.736C91.1082 124.746 90.9792 124.756 90.8532 124.766C90.7439 124.776 90.6338 124.783 90.5267 124.792C90.5245 124.793 90.5245 124.793 90.5245 124.793C90.1892 124.814 89.8575 124.832 89.5257 124.85C89.4484 124.853 89.3719 124.858 89.2967 124.861C89.1524 124.868 89.0066 124.878 88.8636 124.883C88.8615 124.883 88.8615 124.883 88.8615 124.883C88.4844 124.898 88.1072 124.905 87.7278 124.913C87.7248 124.911 87.7197 124.911 87.7132 124.913C87.6862 124.913 87.6613 124.912 87.6351 124.914C87.4921 124.918 87.3462 124.921 87.2046 124.923C86.6602 124.928 86.1149 124.924 85.5694 124.913C85.5022 124.91 85.4372 124.906 85.3707 124.905C85.3035 124.902 85.2363 124.899 85.1691 124.896C85.1618 124.896 85.1545 124.896 85.1472 124.897C84.7404 124.882 84.3364 124.87 83.9316 124.847C83.9316 124.847 83.9316 124.847 83.9294 124.848C83.7767 124.839 83.6232 124.827 83.4697 124.816C83.4141 124.811 83.3563 124.807 83.3008 124.803C82.9675 124.782 82.6335 124.759 82.3022 124.73C82.3022 124.73 82.3022 124.73 82.2993 124.728C82.2664 124.725 82.2313 124.723 82.1976 124.718C82.0031 124.702 81.8092 124.68 81.6161 124.661C81.306 124.629 80.9951 124.596 80.6826 124.557C80.6139 124.55 80.5414 124.539 80.4718 124.53C80.3101 124.509 80.1476 124.486 79.9858 124.465C79.9829 124.464 79.9829 124.464 79.9807 124.465C79.6791 124.423 79.3768 124.379 79.0758 124.332C78.8393 124.293 78.6027 124.255 78.3697 124.213C78.0723 124.162 77.7756 124.107 77.481 124.05C77.2464 124.004 77.0119 123.957 76.778 123.906C76.4819 123.845 76.1885 123.778 75.8944 123.709C75.857 123.7 75.8188 123.689 75.7822 123.683C75.5922 123.638 75.4022 123.593 75.2136 123.545C75.2115 123.546 75.2107 123.543 75.2085 123.544C74.9099 123.469 74.6141 123.389 74.3153 123.306C74.3124 123.305 74.3094 123.304 74.3072 123.304C74.1956 123.273 74.084 123.242 73.9725 123.211C73.8675 123.184 73.764 123.155 73.6605 123.126C73.3462 123.035 73.0361 122.934 72.7238 122.835C72.6849 122.822 72.6438 122.81 72.6026 122.797C72.4476 122.747 72.2911 122.7 72.1361 122.65C72.1353 122.648 72.1353 122.648 72.1331 122.649C71.7517 122.52 71.3714 122.381 70.9934 122.242C70.8728 122.199 70.75 122.157 70.6287 122.112C70.1358 121.925 69.6485 121.726 69.1632 121.52C69.1632 121.52 69.1632 121.52 69.161 121.52C69.1543 121.515 69.1484 121.513 69.1433 121.512C68.996 121.449 68.8508 121.379 68.7035 121.316C68.6976 121.313 68.6909 121.308 68.685 121.305C68.3594 121.162 68.0309 121.017 67.7087 120.862C67.5141 120.77 67.3245 120.671 67.1313 120.575C66.8481 120.434 66.5619 120.291 66.2786 120.142C66.2786 120.142 66.2778 120.14 66.2756 120.141C66.097 120.045 65.919 119.944 65.7396 119.846C65.7182 119.835 65.6976 119.825 65.6754 119.811C65.4096 119.663 65.1408 119.514 64.8778 119.36C64.877 119.358 64.8748 119.359 64.8719 119.357C64.6731 119.239 64.4735 119.119 64.2754 118.996C64.2724 118.995 64.2717 118.993 64.2695 118.994C64.0122 118.835 63.7571 118.677 63.5026 118.512C63.3014 118.381 63.1001 118.249 62.9032 118.116C62.6515 117.946 62.4034 117.772 62.1545 117.596C61.9604 117.457 61.7663 117.318 61.5707 117.175C61.3238 116.991 61.0776 116.802 60.8327 116.61C60.8053 116.588 60.7756 116.567 60.7474 116.542C60.5916 116.422 60.4337 116.301 60.2807 116.175C60.2777 116.173 60.2777 116.173 60.277 116.171C60.0261 115.969 59.7794 115.758 59.5319 115.545C59.3833 115.417 59.2303 115.29 59.0801 115.157C59.0623 115.141 59.0415 115.124 59.0199 115.105C59.0199 115.105 59.0199 115.105 59.0192 115.103C58.7508 114.865 58.4865 114.619 58.2237 114.37C58.1203 114.272 58.0168 114.174 57.9133 114.076C57.8747 114.043 57.8374 114.008 57.8002 113.972L57.7972 113.971C57.4032 113.587 57.0155 113.193 56.6334 112.788C56.6297 112.784 56.6252 112.779 56.6215 112.775C55.3818 111.455 54.2106 110.018 53.1142 108.462C53.0902 108.428 53.0661 108.395 53.0413 108.36C52.8608 108.101 52.6831 107.836 52.5045 107.569C52.4631 107.508 52.4196 107.447 52.3803 107.385C52.2288 107.153 52.0787 106.917 51.9307 106.681C51.8673 106.579 51.8003 106.48 51.7369 106.378C51.5269 106.036 51.3183 105.691 51.1147 105.34C51.0262 105.188 50.9432 105.024 50.8561 104.869C50.214 105.796 49.6075 106.754 49.0307 107.734C49.0265 107.743 49.0201 107.753 49.0151 107.759C48.8142 108.103 48.6162 108.448 48.4219 108.796C48.4078 108.819 48.3944 108.843 48.3833 108.867C48.1882 109.213 47.9947 109.564 47.8064 109.915C47.8072 109.917 47.8072 109.917 47.8072 109.917C47.6152 110.272 47.427 110.631 47.241 110.989C47.2362 111.003 47.2284 111.015 47.2228 111.027C47.0473 111.366 46.8748 111.707 46.7045 112.047C46.6799 112.095 46.6561 112.145 46.6294 112.194C46.4668 112.521 46.3064 112.848 46.146 113.175C46.1208 113.228 46.0956 113.281 46.0697 113.332C45.9073 113.666 45.7448 114.001 45.586 114.332C42.3024 121.204 39.0814 128.484 33.1054 133.211C32.8948 132.874 32.6878 132.534 32.4843 132.19C32.4065 132.061 32.33 131.929 32.2544 131.799C32.1266 131.585 32.001 131.37 31.8768 131.152C31.7851 130.991 31.6927 130.828 31.6017 130.662C31.5032 130.489 31.4062 130.313 31.3091 130.137C31.3091 130.137 31.3069 130.138 31.3061 130.136C31.3023 130.125 31.2962 130.115 31.2902 130.105C31.1908 129.922 31.0906 129.737 30.9904 129.552C30.9008 129.383 30.812 129.217 30.7224 129.048C30.7025 129.006 30.6797 128.962 30.6577 128.921C30.6258 128.859 30.5932 128.802 30.5613 128.74L30.5634 128.739C30.5124 128.637 30.46 128.539 30.4098 128.439C30.3315 128.288 30.2554 128.136 30.1793 127.985C30.0689 127.764 29.9577 127.542 29.8479 127.316C29.7869 127.186 29.7244 127.059 29.6611 126.93C29.5428 126.68 29.4261 126.435 29.3122 126.184C29.2664 126.09 29.2235 125.99 29.1791 125.894C29.0492 125.612 28.9223 125.331 28.7989 125.047C28.7814 125.011 28.769 124.976 28.7515 124.941C28.5055 124.375 28.2688 123.8 28.0394 123.225C27.9516 123.007 27.8661 122.787 27.7835 122.569C27.7187 122.401 27.6496 122.235 27.587 122.066C27.587 122.066 27.587 122.066 27.5848 122.067C27.5693 122.023 27.553 121.978 27.5375 121.934C27.4557 121.718 27.3775 121.499 27.297 121.28C27.2583 121.171 27.2174 121.063 27.1786 120.955C27.1778 120.952 27.1771 120.95 27.1763 120.948C26.7499 119.738 26.3633 118.516 26.0226 117.285C26.0195 117.276 26.0156 117.266 26.0147 117.256C25.9129 116.888 25.8155 116.519 25.7203 116.148C25.7209 116.143 25.7193 116.139 25.7178 116.135C25.5516 115.476 25.3942 114.814 25.2556 114.151C24.0511 108.379 26.5175 102.412 31.4751 99.1992C31.6783 99.068 31.8837 98.9433 32.0876 98.8143C31.8481 98.8433 31.6093 98.8745 31.369 98.9014C25.4979 99.5511 19.8121 96.4869 17.0946 91.2548Z" fill="#74D0CF"/>
</g>
<mask id="mask1_157_62" style="mask-type:luminance" maskUnits="userSpaceOnUse" x="55" y="79" width="97" height="58">
<path d="M142.567 79.5265L55.7572 110.469L64.9744 136.328L151.785 105.385L142.567 79.5265Z" fill="white"/>
</mask>
<g mask="url(#mask1_157_62)">
<path d="M133.083 101.281C134.237 100.85 135.182 99.6709 134.709 98.3938C134.34 97.3985 132.982 97.1353 132.294 97.9561C132.029 98.271 132.494 98.6468 132.774 98.3608C133.297 97.8339 133.878 98.6117 133.823 99.1311C133.755 99.7529 133.164 100.189 132.695 100.53C132.307 100.811 132.626 101.451 133.083 101.281ZM60.0589 109.174C61.5848 109.227 63.0383 110.831 64.4 110.142C65.4813 109.595 65.2229 108.32 65.9028 107.527C66.6255 106.681 67.9028 106.395 68.9646 106.384C72.6593 106.343 75.7676 108.974 78.5012 111.454C81.6953 114.353 85.7786 120.049 90.6034 119.804C92.7784 119.692 94.5618 118.111 96.5814 117.296C99.6876 116.044 103.181 116.656 106.529 116.619C111.559 116.565 114.152 114.237 116.351 110.028C118.02 106.834 118.393 102.147 121.98 100.361C124.389 99.1617 127.983 99.5444 129.057 97.0792C130.084 94.7237 127.575 92.0829 128.176 89.5851C128.691 87.449 131.262 86.4689 133.459 86.5848C135.657 86.7007 137.776 87.5474 139.976 87.5597C140.106 87.5599 140.235 87.5507 140.362 87.5444C139.18 90.7293 137.692 93.7637 136.386 96.9117C136.205 97.3461 136.825 97.8085 137.116 97.3791C139.158 94.3655 140.693 90.9251 141.851 87.3348C142.901 87.0781 143.899 86.6144 144.794 85.9967C144.794 85.9967 144.794 85.9967 144.792 85.9996C144.622 86.5309 144.438 87.0595 144.248 87.5853C144.243 87.5993 144.239 87.6154 144.233 87.6323C144.231 87.6353 144.228 87.6412 144.227 87.6441C144.219 87.6691 144.21 87.6919 144.201 87.7147C144.031 88.1795 143.851 88.6431 143.667 89.1031C143.658 89.1259 143.651 89.148 143.642 89.1708C143.624 89.2113 143.609 89.251 143.594 89.2907C143.582 89.3194 143.568 89.3489 143.556 89.3776C143.388 89.7928 143.208 90.2023 143.029 90.6119C143.02 90.6296 143.014 90.6465 143.008 90.6634C142.973 90.7371 142.939 90.8152 142.906 90.8932C142.899 90.908 142.89 90.9257 142.882 90.9434C142.657 91.44 142.424 91.9345 142.182 92.4228C141.949 92.8903 141.706 93.3545 141.454 93.8166C141.371 93.9687 141.284 94.1172 141.198 94.2679C141.027 94.5765 140.853 94.8859 140.672 95.1904C140.567 95.3699 140.456 95.5467 140.348 95.7248C140.181 95.9998 140.012 96.2733 139.839 96.5455C139.72 96.7326 139.597 96.9162 139.477 97.1012C139.303 97.3639 139.131 97.6236 138.952 97.8835C138.825 98.0708 138.693 98.2575 138.563 98.4434C138.384 98.696 138.202 98.9494 138.017 99.1992C137.88 99.3852 137.743 99.5712 137.604 99.7529C137.415 100.004 137.223 100.251 137.03 100.499C136.888 100.679 136.747 100.86 136.604 101.036C136.402 101.289 136.194 101.537 135.986 101.785C135.844 101.956 135.704 102.126 135.558 102.295C135.337 102.553 135.108 102.811 134.878 103.067C134.744 103.22 134.61 103.373 134.473 103.525C134.203 103.819 133.929 104.111 133.653 104.4C133.55 104.51 133.45 104.622 133.344 104.731C132.959 105.128 132.57 105.521 132.175 105.909C132.098 105.983 132.019 106.056 131.942 106.13C131.62 106.443 131.297 106.754 130.965 107.059C130.82 107.196 130.671 107.327 130.523 107.461C130.256 107.703 129.99 107.945 129.719 108.181C129.55 108.332 129.378 108.477 129.207 108.623C128.952 108.842 128.695 109.061 128.436 109.278C128.255 109.428 128.07 109.577 127.886 109.726C127.632 109.935 127.375 110.141 127.115 110.347C126.927 110.494 126.735 110.641 126.544 110.788C126.286 110.99 126.022 111.187 125.759 111.383C125.566 111.528 125.371 111.674 125.176 111.817C124.907 112.011 124.638 112.204 124.366 112.397C124.173 112.534 123.977 112.673 123.781 112.809C123.499 113.002 123.215 113.194 122.93 113.384C122.741 113.513 122.551 113.642 122.358 113.767C122.05 113.967 121.739 114.166 121.429 114.363C121.255 114.471 121.084 114.584 120.912 114.692C120.518 114.935 120.125 115.171 119.726 115.406C119.631 115.464 119.535 115.523 119.437 115.58C118.943 115.871 118.446 116.153 117.943 116.433C117.796 116.515 117.647 116.593 117.499 116.672C117.143 116.868 116.786 117.061 116.424 117.249C116.228 117.353 116.03 117.451 115.834 117.553C115.519 117.714 115.201 117.874 114.885 118.031C114.668 118.137 114.452 118.239 114.236 118.343C113.933 118.488 113.627 118.633 113.323 118.776C113.097 118.878 112.871 118.981 112.646 119.083C112.343 119.218 112.043 119.352 111.739 119.482C111.51 119.581 111.281 119.68 111.048 119.778C110.746 119.905 110.443 120.03 110.136 120.152C109.905 120.247 109.675 120.338 109.443 120.428C109.132 120.552 108.821 120.67 108.509 120.786C108.281 120.872 108.054 120.958 107.826 121.039C107.501 121.16 107.174 121.272 106.849 121.385C106.777 121.41 106.705 121.434 106.631 121.46C106.487 121.511 106.343 121.56 106.199 121.609C105.84 121.73 105.479 121.844 105.118 121.958L105.115 121.959C105.032 121.986 104.947 122.014 104.862 122.039C104.762 122.072 104.663 122.105 104.562 122.136C104.027 122.3 103.493 122.459 102.956 122.608C102.954 122.609 102.952 122.61 102.949 122.611C102.905 122.624 102.858 122.636 102.811 122.648C102.809 122.649 102.806 122.649 102.804 122.65C102.294 122.793 101.784 122.928 101.271 123.057L101.269 123.058C101.078 123.106 100.883 123.151 100.689 123.198C100.689 123.196 100.686 123.197 100.686 123.197C100.328 123.285 99.9696 123.371 99.6106 123.45C99.5344 123.47 99.4588 123.485 99.3832 123.5C99.2335 123.533 99.0853 123.564 98.9356 123.598L98.9327 123.597C98.6027 123.668 98.275 123.738 97.9449 123.802C97.7072 123.85 97.4724 123.892 97.2353 123.934C97.2331 123.935 97.2331 123.935 97.2331 123.935C96.9139 123.995 96.5939 124.053 96.2746 124.105C96.0942 124.135 95.916 124.165 95.7348 124.192C95.6722 124.203 95.6097 124.213 95.5471 124.223C95.5449 124.223 95.5449 124.223 95.5449 124.223C95.2292 124.272 94.9156 124.32 94.6026 124.363L94.6004 124.364C94.3551 124.398 94.112 124.43 93.8681 124.461C93.8681 124.461 93.8681 124.461 93.866 124.462C93.5522 124.503 93.2369 124.539 92.9208 124.573L92.9187 124.574C92.9165 124.575 92.9143 124.576 92.9114 124.574C92.671 124.601 92.4329 124.627 92.194 124.651C92.194 124.651 92.194 124.651 92.1918 124.652C91.872 124.682 91.5536 124.71 91.2344 124.736C91.2323 124.737 91.2323 124.737 91.2301 124.737C91.104 124.748 90.9794 124.756 90.8533 124.766C90.744 124.776 90.634 124.783 90.5269 124.792C90.5247 124.793 90.5247 124.793 90.5247 124.793C90.1894 124.814 89.8576 124.832 89.5259 124.85C89.5229 124.849 89.5208 124.849 89.5186 124.85C89.4435 124.852 89.3713 124.856 89.2969 124.86C89.1525 124.868 89.0068 124.878 88.8638 124.883C88.8616 124.883 88.8616 124.883 88.8616 124.883C88.4846 124.898 88.1073 124.905 87.7279 124.913C87.725 124.911 87.7199 124.911 87.7134 124.913C87.6863 124.913 87.6615 124.912 87.6353 124.914C87.4923 124.918 87.3493 124.923 87.2078 124.924C87.2078 124.924 87.207 124.922 87.2048 124.923C86.6604 124.928 86.1151 124.924 85.5696 124.913C85.5696 124.913 85.5696 124.913 85.5688 124.91C85.5024 124.91 85.4352 124.907 85.3709 124.905C85.3037 124.902 85.2365 124.899 85.1693 124.896C85.162 124.896 85.1547 124.896 85.1474 124.897C84.7405 124.882 84.3366 124.87 83.9318 124.847C83.9318 124.847 83.9318 124.847 83.9296 124.848C83.7769 124.839 83.6233 124.827 83.4698 124.816C83.4164 124.81 83.3646 124.809 83.3112 124.804C83.309 124.805 83.3039 124.804 83.3009 124.803C82.9677 124.782 82.6336 124.759 82.3024 124.73C82.3024 124.73 82.3024 124.73 82.2994 124.728C82.2665 124.725 82.2314 124.723 82.1978 124.718C82.0076 124.7 81.8167 124.68 81.6265 124.662C81.6236 124.661 81.6214 124.661 81.6163 124.661C81.3062 124.629 80.9953 124.595 80.6828 124.557C80.6828 124.557 80.6828 124.557 80.6806 124.558C80.6111 124.549 80.5415 124.539 80.472 124.53C80.3103 124.509 80.1478 124.486 79.986 124.465C79.9831 124.464 79.9831 124.464 79.9809 124.465C79.6793 124.423 79.3769 124.379 79.076 124.331L79.073 124.33C78.8394 124.293 78.6072 124.254 78.3728 124.215C78.3721 124.212 78.3699 124.213 78.3699 124.213C78.0725 124.162 77.7757 124.107 77.4811 124.05C77.4804 124.048 77.4782 124.048 77.4782 124.048C77.2458 124.001 77.0121 123.957 76.7811 123.907L76.7782 123.906C76.482 123.845 76.1887 123.778 75.8946 123.709C75.8938 123.707 75.8916 123.707 75.8887 123.706C75.8542 123.699 75.8168 123.69 75.7823 123.683C75.5924 123.638 75.4024 123.593 75.2138 123.545C75.2116 123.546 75.2109 123.543 75.2087 123.544C74.9101 123.469 74.6142 123.389 74.3155 123.306C74.3125 123.305 74.3096 123.304 74.3074 123.304C74.1958 123.273 74.0842 123.242 73.9726 123.211C73.8699 123.184 73.7671 123.156 73.6628 123.125L73.6607 123.126C73.3464 123.035 73.0363 122.934 72.724 122.835C72.7189 122.834 72.713 122.832 72.71 122.83C72.674 122.818 72.6388 122.809 72.6028 122.797C72.4478 122.747 72.2913 122.7 72.1363 122.65C72.1355 122.648 72.1355 122.648 72.1333 122.649C71.7518 122.52 71.3716 122.381 70.9935 122.242C70.9825 122.238 70.9715 122.235 70.9597 122.229C70.8509 122.192 70.7421 122.155 70.634 122.112C70.6318 122.113 70.6318 122.113 70.6288 122.112C70.1359 121.925 69.6486 121.726 69.1633 121.519C69.1633 121.519 69.1633 121.519 69.1612 121.52C69.1545 121.515 69.1486 121.513 69.1435 121.512C68.9962 121.449 68.8509 121.379 68.7037 121.316C68.6978 121.313 68.6911 121.308 68.6852 121.305C68.3596 121.162 68.0311 121.017 67.7089 120.862C67.7067 120.863 67.706 120.861 67.706 120.861C67.5173 120.771 67.3306 120.673 67.1433 120.581C67.1403 120.58 67.1374 120.578 67.1315 120.575C66.8483 120.434 66.5621 120.291 66.2787 120.142C66.2787 120.142 66.278 120.14 66.2758 120.14C66.0972 120.045 65.9192 119.944 65.7398 119.846C65.7213 119.836 65.7029 119.825 65.6822 119.816C65.6815 119.813 65.6793 119.814 65.6756 119.811C65.4097 119.663 65.141 119.514 64.8779 119.36C64.8772 119.358 64.875 119.358 64.872 119.357C64.6733 119.239 64.4737 119.119 64.2756 118.996C64.2726 118.995 64.2718 118.993 64.2697 118.994C64.0124 118.835 63.7573 118.676 63.5028 118.512C63.4999 118.511 63.4991 118.509 63.4991 118.509C63.2994 118.382 63.1032 118.251 62.9085 118.117C62.9063 118.117 62.9034 118.116 62.9034 118.116C62.6517 117.946 62.4036 117.772 62.1547 117.596C62.1518 117.595 62.1518 117.595 62.151 117.593C61.9577 117.456 61.7665 117.318 61.5746 117.179C61.5738 117.176 61.5738 117.176 61.5708 117.175C61.324 116.991 61.0777 116.802 60.8329 116.61C60.8329 116.61 60.8299 116.609 60.8292 116.606C60.8025 116.586 60.775 116.564 60.7476 116.542C60.5918 116.421 60.4338 116.301 60.2809 116.175C60.2779 116.173 60.2779 116.173 60.2771 116.171C60.0262 115.969 59.7796 115.758 59.5321 115.545C59.5291 115.543 59.5284 115.541 59.5254 115.54C59.3776 115.414 59.2297 115.288 59.0803 115.157C59.0625 115.141 59.0417 115.124 59.0201 115.105C59.0201 115.105 59.0201 115.105 59.0193 115.103C58.7509 114.865 58.4867 114.619 58.2239 114.37C58.2202 114.366 58.2194 114.364 58.2157 114.36C58.1159 114.266 58.014 114.173 57.9135 114.076C57.8748 114.043 57.8376 114.008 57.8004 113.972L57.7974 113.97C57.4034 113.587 57.0157 113.193 56.6336 112.788C56.6299 112.784 56.6254 112.779 56.6217 112.775C57.3017 110.999 58.2635 109.113 60.0589 109.174Z" fill="#87D7D6"/>
</g>
<path d="M44.4835 46.1695C46.6835 43.908 50.0287 42.7426 51.552 39.9849C53.0451 37.287 52.4407 33.6119 54.517 31.3333C58.2499 27.2417 65.7365 31.9351 70.4198 28.9771C73.4468 27.0701 73.947 22.8029 76.4295 20.2276C79.0678 17.4914 83.6454 17.2611 86.9835 19.0724C90.3238 20.8829 92.5121 24.3486 93.6025 27.9851C93.6095 28.0047 93.6143 28.025 93.6191 28.0454C93.6199 28.0476 93.6199 28.0476 93.6206 28.0497C93.7328 28.4262 93.8327 28.8096 93.9245 29.1909C93.9421 29.2679 93.9649 29.3455 93.9826 29.4225C93.9804 29.4233 93.9782 29.4241 93.9774 29.4219C93.8689 29.4336 93.7626 29.4446 93.6541 29.4563C93.6205 29.4585 93.5878 29.4628 93.5521 29.4657C92.8943 29.5311 92.2361 29.609 91.5839 29.6969C91.5584 29.7011 91.5351 29.7045 91.5097 29.7086C90.8364 29.7992 90.1677 29.9028 89.5008 30.018C89.4986 30.0188 89.4964 30.0196 89.4943 30.0203C88.8644 30.1297 88.2392 30.2521 87.6164 30.381C87.4128 30.4217 87.2094 30.4697 87.0053 30.5155C86.7095 30.5793 86.4108 30.6417 86.1166 30.7098C85.9721 30.7442 85.8269 30.7837 85.6824 30.818C85.5356 30.8532 85.3875 30.8913 85.2408 30.9264C84.6476 31.0766 84.0559 31.2312 83.4667 31.3996C82.8136 31.5882 82.1637 31.7856 81.5206 31.9952C81.5184 31.996 81.5184 31.996 81.5163 31.9968C76.1088 33.7478 71.0092 36.2736 66.4155 39.4348C65.6936 39.9322 64.9824 40.4454 64.286 40.9729C60.2277 44.0487 56.621 47.6421 53.614 51.6464C53.1437 52.2722 52.6889 52.9071 52.2475 53.552C50.1243 56.6681 48.3562 60.0104 47.0078 63.5338C46.8758 63.4314 46.7487 63.3223 46.6195 63.214C46.5697 63.1705 46.5177 63.1278 46.4671 63.0822C46.3297 62.9646 46.1965 62.8454 46.064 62.7211C46.0172 62.6791 45.9717 62.634 45.9241 62.5897C45.7908 62.4633 45.6619 62.3353 45.5344 62.2044C45.4927 62.1629 45.4531 62.1206 45.4114 62.0792C45.2815 61.9417 45.1517 61.8042 45.0276 61.6623C44.9955 61.6272 44.9626 61.5899 44.9327 61.554C44.8011 61.4049 44.6731 61.2521 44.5495 61.0977C44.5286 61.0733 44.5098 61.0482 44.491 61.023C44.3584 60.8571 44.2286 60.6854 44.1039 60.5142C44.1053 60.5113 44.1075 60.5105 44.1089 60.5076C43.5251 59.7014 43.0241 58.8388 42.6356 57.914C41.0134 54.0432 41.5546 49.1832 44.4835 46.1695Z" fill="#FCCE40"/>
<mask id="mask2_157_62" style="mask-type:luminance" maskUnits="userSpaceOnUse" x="9" y="61" width="51" height="74">
<path d="M37.1904 61.8959L9.6275 71.7206L31.8429 134.046L59.4058 124.221L37.1904 61.8959Z" fill="white"/>
</mask>
<g mask="url(#mask2_157_62)">
<path d="M17.0964 91.2544C16.0223 89.1824 15.0907 87.0156 14.2923 84.7964C14.2915 84.7942 14.2907 84.792 14.2892 84.7877C14.1575 84.4181 14.0271 84.0456 13.9012 83.6716C13.9033 83.6708 13.9085 83.6715 13.9106 83.6707C13.1269 81.3482 12.4803 78.9843 11.9825 76.6187C11.9818 76.6165 11.981 76.6143 11.981 76.6143C11.8733 76.0991 11.7728 75.5836 11.6775 75.0688C11.6775 75.0688 11.6768 75.0666 11.676 75.0645C11.4574 73.8807 11.2709 72.6977 11.1204 71.5264C18.739 71.4077 25.8396 75.0113 32.7283 78.2544C35.3251 79.4773 38.0139 80.6699 40.7573 81.6103C41.1315 81.7391 41.5055 81.8606 41.881 81.9791C41.917 81.9908 41.953 82.0024 41.989 82.0141C42.3637 82.1304 42.736 82.2403 43.1119 82.3464C43.1552 82.3579 43.1963 82.3702 43.2396 82.3817C43.5171 82.4592 43.7945 82.5293 44.074 82.5987C44.141 83.7214 44.2527 84.8527 44.4061 85.9911C44.508 86.751 44.6281 87.5142 44.7687 88.2799C44.8928 88.951 45.0344 89.6233 45.1892 90.2982C45.19 90.3004 45.1864 90.3041 45.1872 90.3063C45.3044 90.8206 45.4318 91.3362 45.5666 91.8517C45.5818 91.9149 45.5983 91.9751 45.6149 92.0353C45.653 92.1835 45.6903 92.3294 45.7306 92.4767C45.8316 92.8425 45.9369 93.2068 46.0474 93.5716C46.0553 93.6007 46.0632 93.6297 46.074 93.6601C46.2213 94.149 46.3767 94.64 46.5394 95.1308C46.5448 95.146 46.5495 95.159 46.5541 95.1721C46.5659 95.212 46.5798 95.2511 46.5916 95.291C46.7611 95.7941 46.9409 96.2984 47.1279 96.8025C47.1574 96.8851 47.1882 96.9648 47.2198 97.0466C47.4098 97.5522 47.6057 98.0605 47.8133 98.5672C47.8226 98.5933 47.8354 98.6156 47.8447 98.6417C47.9401 98.8748 48.0376 99.107 48.1372 99.3386C48.2454 99.594 48.3587 99.85 48.4713 100.104C48.508 100.186 48.5418 100.267 48.5778 100.348C48.7499 100.727 48.9249 101.108 49.1058 101.492C49.1562 101.599 49.2103 101.71 49.2636 101.818C49.3101 101.914 49.3566 102.01 49.4053 102.106C49.6507 102.609 49.9042 103.114 50.168 103.62C50.3906 104.045 50.6254 104.456 50.858 104.868C50.2158 105.795 49.6094 106.754 49.0325 107.734C49.0283 107.743 49.022 107.752 49.017 107.759C48.8161 108.102 48.6181 108.447 48.4238 108.796C48.4097 108.818 48.3963 108.843 48.3851 108.866C48.1901 109.212 47.9966 109.563 47.8083 109.914C47.809 109.917 47.809 109.917 47.809 109.917C47.6171 110.272 47.4289 110.63 47.2429 110.988C47.238 111.002 47.2303 111.015 47.2247 111.027C47.0492 111.366 46.8767 111.707 46.7063 112.047C46.6818 112.095 46.658 112.145 46.6313 112.193C46.4687 112.521 46.3083 112.848 46.1479 113.174C46.1227 113.227 46.0975 113.28 46.0716 113.331C45.9091 113.666 45.7467 114.001 45.5879 114.332C42.3043 121.203 39.0832 128.483 33.1073 133.21C32.8967 132.874 32.6897 132.534 32.4862 132.19C32.4084 132.061 32.3319 131.929 32.2562 131.799C32.1285 131.585 32.0029 131.37 31.8786 131.152C31.787 130.991 31.6946 130.828 31.6036 130.662C31.5051 130.489 31.408 130.313 31.311 130.137C31.311 130.137 31.3088 130.137 31.308 130.135C31.3041 130.124 31.2981 130.114 31.2921 130.104C31.1927 129.922 31.0925 129.737 30.9923 129.552C30.9027 129.383 30.8139 129.216 30.7242 129.047C30.7044 129.005 30.6816 128.962 30.6596 128.921C30.6277 128.859 30.5951 128.802 30.5632 128.74L30.5653 128.739C30.5143 128.637 30.4619 128.538 30.4117 128.438C30.3334 128.287 30.2573 128.136 30.1811 127.984C30.0707 127.764 29.9596 127.541 29.8498 127.316C29.7887 127.186 29.7263 127.058 29.663 126.929C29.5447 126.68 29.428 126.435 29.314 126.184C29.2683 126.09 29.2254 125.99 29.181 125.893C29.0511 125.611 28.9242 125.331 28.8008 125.046C28.7832 125.011 28.7708 124.976 28.7533 124.941C28.5073 124.374 28.2706 123.8 28.0413 123.225C27.9535 123.006 27.868 122.787 27.7854 122.569C27.7206 122.401 27.6515 122.234 27.5889 122.065C27.5889 122.065 27.5889 122.065 27.5867 122.066C27.5712 122.023 27.5549 121.977 27.5394 121.934C27.4576 121.718 27.3793 121.498 27.2989 121.28C27.2602 121.171 27.2192 121.063 27.1805 120.954C27.1797 120.952 27.179 120.95 27.1782 120.948C26.7517 119.738 26.3652 118.516 26.0244 117.285C26.0213 117.276 26.0175 117.265 26.0165 117.256C25.9148 116.888 25.8174 116.518 25.7221 116.148C25.7228 116.143 25.7212 116.138 25.7197 116.134C25.5535 115.476 25.396 114.814 25.2575 114.15C24.0529 108.379 26.5194 102.411 31.477 99.1988C31.6801 99.0676 31.8856 98.9429 32.0895 98.8139C31.85 98.8429 31.6112 98.8741 31.3709 98.901C25.4997 99.5507 19.8139 96.4864 17.0964 91.2544Z" fill="#FCCE40"/>
</g>
<path d="M82.7345 106.407C82.4175 105.161 82.4569 103.89 82.7253 102.643C83.1145 100.848 83.9806 99.0984 84.9738 97.5341C90.2565 89.2128 99.7393 83.3681 109.58 82.4452C111.296 82.2842 112.593 82.5472 113.548 83.123C114.309 83.5818 114.853 84.2406 115.218 85.0462L115.219 85.0483C116.575 88.056 115.424 93.0943 113.749 97.3296C113.744 97.3384 113.742 97.3443 113.74 97.3524C113.576 97.766 113.408 98.1687 113.235 98.5635C113.229 98.5804 113.222 98.5951 113.216 98.6121C113.046 99.001 112.876 99.3775 112.702 99.7409C112.692 99.7615 112.682 99.7822 112.675 99.802C112.591 99.9738 112.51 100.145 112.428 100.312C112.423 100.318 112.42 100.324 112.416 100.333C112.33 100.506 112.244 100.676 112.158 100.841C112.149 100.862 112.137 100.883 112.127 100.904C112.051 101.048 111.975 101.193 111.901 101.33C111.888 101.354 111.876 101.375 111.865 101.399C111.782 101.551 111.7 101.7 111.618 101.842C111.609 101.863 111.596 101.882 111.586 101.903C111.515 102.026 111.445 102.146 111.377 102.264C111.36 102.292 111.342 102.323 111.325 102.351C111.246 102.482 111.169 102.61 111.093 102.732C111.085 102.745 111.077 102.758 111.07 102.77C111 102.878 110.933 102.983 110.868 103.085C110.849 103.113 110.83 103.142 110.811 103.171C110.737 103.281 110.665 103.387 110.596 103.488C106.653 109.088 100.117 113.027 93.2691 113.006C93.0698 113.003 92.8689 112.996 92.6673 112.987C92.6249 112.985 92.5825 112.983 92.5401 112.981C92.3429 112.971 92.1462 112.955 91.948 112.935C91.9202 112.933 91.8916 112.928 91.8617 112.927C91.6759 112.907 91.4885 112.883 91.3018 112.854C91.274 112.852 91.2454 112.847 91.219 112.842C91.0177 112.813 90.8133 112.776 90.6132 112.737C90.581 112.729 90.5495 112.723 90.515 112.716C90.1001 112.631 89.6885 112.528 89.2816 112.403C89.2595 112.396 89.2353 112.39 89.2125 112.381C88.7865 112.251 88.3724 112.1 87.9681 111.928C87.9652 111.927 87.9622 111.925 87.9615 111.923C87.7568 111.837 87.5549 111.745 87.3558 111.647C87.3499 111.644 87.3461 111.64 87.3381 111.638C86.942 111.441 86.558 111.223 86.191 110.984C86.1902 110.982 86.1902 110.982 86.188 110.983C85.9668 110.836 85.7526 110.682 85.5457 110.521C85.4915 110.479 85.4409 110.433 85.386 110.389C85.2368 110.266 85.0904 110.144 84.9491 110.015C84.8874 109.959 84.8321 109.9 84.7747 109.842C84.6474 109.719 84.5214 109.592 84.4012 109.461C84.3466 109.397 84.292 109.333 84.2366 109.267C84.1258 109.135 84.0157 108.998 83.9121 108.859C83.8896 108.83 83.8649 108.802 83.8425 108.773C83.8468 108.772 83.8468 108.772 83.849 108.771C83.3454 108.066 82.9576 107.281 82.7345 106.407Z" fill="#FCCE40"/>
<path d="M62.4028 35.6542C63.2999 35.724 64.2068 35.6016 65.1085 35.5056C67.0495 35.3013 68.9924 35.013 70.8676 34.4523C73.26 33.7343 75.5169 32.5673 77.4949 31.044C78.4828 30.2827 79.4038 29.4301 80.2372 28.5034C80.626 28.0684 80.9824 27.618 81.3678 27.194C82.1636 28.5469 82.87 29.9512 83.4671 31.3994C82.814 31.5881 82.1641 31.7855 81.521 31.9951C81.5188 31.9959 81.5188 31.9959 81.5167 31.9966C76.1091 33.7477 71.0096 36.2735 66.4159 39.4347C65.0342 37.8472 63.3234 36.5461 61.423 35.6408C61.7577 35.6244 62.0907 35.6307 62.4028 35.6542Z" fill="#FBC32B"/>
<path d="M51.5145 50.6481C52.297 50.156 52.9161 49.3498 52.9767 48.434C53.0156 47.842 52.8281 47.2473 52.919 46.6637C53.1487 45.1707 54.8936 44.5536 56.2393 43.8682C57.5286 43.2101 58.656 42.2424 59.4989 41.0673C59.8359 40.5968 60.1331 39.9666 59.8468 39.466C59.6363 39.0952 59.1863 38.9395 58.8953 38.6316C58.182 37.8814 58.739 36.5437 59.6583 36.0641C59.7117 36.0353 59.7697 36.0122 59.8268 35.9869C61.4696 37.496 62.9785 39.1655 64.2866 40.9728C60.2283 44.0485 56.6216 47.6419 53.6146 51.6463C52.941 51.2617 52.2385 50.9266 51.5145 50.6481Z" fill="#FBC32B"/>
<path d="M47.1429 57.0032C46.9163 55.6801 45.0806 55.0458 44.9858 53.7076C44.9285 52.9147 45.5598 52.2046 46.2912 51.8851C47.0225 51.5656 47.8395 51.5414 48.6344 51.4688C48.8638 51.4458 49.0947 51.4199 49.3254 51.3867C50.3377 52.0548 51.3132 52.7777 52.2481 53.5518C50.1249 56.6679 48.3568 60.0101 47.0084 63.5335C46.8778 63.4282 46.7493 63.3221 46.6201 63.2138C46.5703 63.1703 46.5183 63.1276 46.4677 63.082C46.3303 62.9644 46.1971 62.8452 46.0647 62.7209C46.0178 62.6788 45.9723 62.6338 45.9247 62.5895C45.7915 62.4631 45.6625 62.3351 45.535 62.2042C45.4933 62.1627 45.4537 62.1204 45.412 62.079C45.2821 61.9415 45.1523 61.804 45.0282 61.6621C44.9961 61.627 44.9632 61.5897 44.9333 61.5538C44.8017 61.4047 44.6738 61.2519 44.5501 61.0975C44.5292 61.0731 44.5104 61.048 44.4917 61.0228C44.359 60.8569 44.2292 60.6852 44.1045 60.514C44.1059 60.5111 44.1081 60.5103 44.1095 60.5074C44.5734 60.1044 45.1427 59.7838 45.6559 59.4368C46.4918 58.8742 47.3101 57.9946 47.1429 57.0032Z" fill="#FBC32B"/>
<path d="M93.6542 29.4562C93.6206 29.4583 93.5879 29.4627 93.5522 29.4656C92.8944 29.531 92.2362 29.6088 91.584 29.6968C91.5585 29.7009 91.5353 29.7043 91.5098 29.7085C90.8365 29.7991 90.1678 29.9026 89.5009 30.0179C89.4987 30.0187 89.4966 30.0194 89.4944 30.0202C88.8645 30.1296 88.2393 30.252 87.6165 30.3809C87.4129 30.4216 87.2095 30.4696 87.0054 30.5154C86.7096 30.5792 86.4109 30.6416 86.1167 30.7097C85.2604 28.9741 84.0782 27.3964 82.6512 26.0872C82.7132 26.048 82.7722 26.0073 82.8379 25.9717C84.6557 24.9611 86.9287 25.5302 88.8417 26.3403C90.3999 27.0001 91.9686 27.8202 93.6192 28.0453C93.62 28.0474 93.62 28.0474 93.6207 28.0496C93.7329 28.4261 93.8328 28.8095 93.9246 29.1908C93.9422 29.2678 93.9599 29.3448 93.9775 29.4218C93.869 29.4335 93.7627 29.4445 93.6542 29.4562Z" fill="#FBC32B"/>
<path d="M29.7051 116.845C30.1616 116.895 30.6228 116.89 31.078 116.84C30.4924 117.61 29.8692 118.357 29.2034 119.059C28.9273 118.271 28.6635 117.483 28.4526 116.671C28.8737 116.739 29.2947 116.8 29.7051 116.845Z" fill="#FBC32B"/>
<mask id="mask3_157_62" style="mask-type:luminance" maskUnits="userSpaceOnUse" x="25" y="115" width="4" height="7">
<path d="M26.7031 115.181L25.2945 115.683L27.2781 121.247L28.6866 120.745L26.7031 115.181Z" fill="white"/>
</mask>
<g mask="url(#mask3_157_62)">
<path d="M28.0596 120.185C27.773 120.447 27.4798 120.703 27.1798 120.947C26.7533 119.737 26.3646 118.516 26.0238 117.285C26.0207 117.276 26.0169 117.265 26.0159 117.256C25.9142 116.888 25.8168 116.518 25.7215 116.148C25.7222 116.143 25.7206 116.139 25.7191 116.134C26.1165 116.225 26.5249 116.313 26.9368 116.396C27.149 117.727 27.5164 119.012 28.0596 120.185Z" fill="#FBC32B"/>
</g>
<path d="M38.1714 94.3133C38.6154 94.4662 39.0663 94.597 39.5241 94.7131C40.4194 94.9428 41.3373 95.1056 42.264 95.1967C41.6139 95.8473 41.0123 96.5444 40.4684 97.2797C40.354 97.4331 40.2456 97.5894 40.1349 97.7464C38.8214 96.4188 37.4624 95.1148 36.4116 93.6103C36.9871 93.8706 37.5715 94.1082 38.1714 94.3133Z" fill="#FBC32B"/>
<path d="M31.3072 130.135C31.3033 130.125 31.2972 130.114 31.2912 130.104C31.1918 129.922 31.0916 129.737 30.9915 129.552C30.9018 129.383 30.813 129.216 30.7234 129.047C30.7043 129.008 30.6823 128.967 30.6624 128.925C30.8738 129.332 31.0887 129.736 31.3072 130.135Z" fill="#FBC32B"/>
<path d="M43.5511 108.882C44.9373 106.131 46.7764 103.469 49.1049 101.493C49.1553 101.6 49.2094 101.71 49.2627 101.818C49.3092 101.915 49.3557 102.011 49.4044 102.106C49.6498 102.609 49.9033 103.114 50.1671 103.62C50.3897 104.045 50.6245 104.457 50.8571 104.869C50.2149 105.796 49.6084 106.754 49.0316 107.734C49.0274 107.743 49.0211 107.753 49.0161 107.759C48.8152 108.103 48.6172 108.448 48.4229 108.796C48.4088 108.818 48.3954 108.843 48.3842 108.866C48.1892 109.213 47.9957 109.563 47.8073 109.915C47.8081 109.917 47.8081 109.917 47.8081 109.917C47.6162 110.272 47.428 110.631 47.2419 110.988C47.2371 111.002 47.2294 111.015 47.2238 111.027C47.0483 111.366 46.8758 111.707 46.7054 112.047C46.6809 112.095 46.6571 112.145 46.6304 112.194C46.4678 112.521 46.3074 112.848 46.147 113.175C46.1218 113.228 46.0966 113.281 46.0707 113.332C45.9082 113.666 45.7458 114.001 45.587 114.332C42.3034 121.203 39.0823 128.484 33.1064 133.211C32.8958 132.874 32.6887 132.534 32.4853 132.19C32.4074 132.061 32.331 131.929 32.2553 131.799C32.1275 131.585 32.0019 131.37 31.8777 131.152C31.7861 130.991 31.6937 130.828 31.6027 130.662C31.5042 130.489 31.4071 130.313 31.3101 130.137C33.971 128.248 36.0873 125.47 37.6335 122.549C39.9596 118.161 41.3128 113.317 43.5511 108.882Z" fill="#FBC32B"/>
<path d="M35.6098 105.624C35.9337 105.082 36.4313 104.684 36.9951 104.383C36.4712 105.875 35.9835 107.387 35.4338 108.869C35.3983 108.742 35.3621 108.613 35.3302 108.482C35.1068 107.526 35.1039 106.466 35.6098 105.624Z" fill="#FBC32B"/>
<path d="M40.4399 85.6552C40.6547 85.2748 40.7999 84.8507 40.8508 84.4161C40.8748 84.2017 40.5351 81.5372 40.7307 81.6047C40.7409 81.606 40.7468 81.6088 40.7549 81.6108C41.1291 81.7396 41.5031 81.861 41.8785 81.9796C41.9145 81.9912 41.9506 82.0029 41.9866 82.0145C42.3612 82.1309 42.7336 82.2407 43.1095 82.3468C43.1528 82.3583 43.1939 82.3706 43.2372 82.3821C43.5147 82.4596 43.7921 82.5298 44.0716 82.5992C44.1386 83.7219 44.2503 84.8531 44.4037 85.9915C43.0878 86.0319 41.7589 85.9053 40.4399 85.6552Z" fill="#FBC32B"/>
<mask id="mask4_157_62" style="mask-type:luminance" maskUnits="userSpaceOnUse" x="21" y="94" width="35" height="36">
<path d="M47.0215 94.7672L21.128 103.997L30.0538 129.038L55.9473 119.809L47.0215 94.7672Z" fill="white"/>
</mask>
<g mask="url(#mask4_157_62)">
<path d="M28.6794 121.355C28.8357 121.608 29.0021 121.855 29.177 122.092C29.5276 122.56 30.2408 122.176 30.0755 121.629C29.9674 121.271 29.8507 120.923 29.734 120.575C31.7327 118.993 33.4616 117.039 34.8667 114.885C35.3968 114.289 35.8093 113.591 36.0756 112.839C36.0903 112.812 36.1065 112.782 36.1212 112.754C37.7312 109.704 38.7986 106.396 40.2228 103.257C40.4321 103.177 40.6361 103.09 40.8377 102.989C41.495 102.654 42.634 101.822 42.5702 100.962C42.5414 100.593 42.3163 100.188 42.034 99.8085C42.9415 98.3678 44.0274 97.0155 45.2839 95.9013C45.5649 95.6517 45.8533 95.4092 46.1508 95.1856C46.2805 95.1712 46.4092 95.1474 46.538 95.1308C46.5435 95.1461 46.5481 95.1591 46.5527 95.1721C46.5645 95.212 46.5785 95.2512 46.5902 95.2911C46.7598 95.7941 46.9395 96.2984 47.1266 96.8026C47.156 96.8852 47.1868 96.9648 47.2185 97.0467C47.4085 97.5522 47.6044 98.0606 47.8119 98.5672C47.8212 98.5933 47.8341 98.6157 47.8434 98.6418C47.9387 98.8748 48.0362 99.1071 48.1359 99.3386C46.5555 100.679 45.1319 102.217 43.8798 103.867C41.2066 107.385 39.2536 111.39 37.4766 115.437C35.5061 119.936 33.6297 124.927 30.5639 128.739C30.5129 128.637 30.4605 128.538 30.4103 128.438C30.332 128.288 30.2559 128.136 30.1798 127.984C30.0694 127.764 29.9582 127.541 29.8484 127.316C29.7874 127.186 29.7249 127.059 29.6616 126.929C29.5433 126.68 29.4266 126.435 29.3127 126.184C29.2669 126.09 29.224 125.99 29.1796 125.893C29.0497 125.611 28.9228 125.331 28.7994 125.046C28.7819 125.011 28.7695 124.976 28.752 124.941C28.5059 124.374 28.2693 123.8 28.0399 123.225C27.9522 123.006 27.8666 122.787 27.784 122.569C27.7192 122.401 27.6501 122.234 27.5875 122.066C27.9588 121.843 28.3217 121.603 28.6794 121.355Z" fill="#FBC32B"/>
</g>
<path d="M35.2422 88.7578C35.7817 87.9138 36.787 87.6755 37.79 87.3964C37.8707 87.4167 37.9537 87.4434 38.0344 87.4636C40.2322 87.9934 42.5069 88.2924 44.7687 88.28C44.8927 88.9511 45.0344 89.6234 45.1892 90.2983C45.19 90.3004 45.1864 90.3042 45.1872 90.3063C45.3043 90.8207 45.4318 91.3363 45.5665 91.8518C45.5817 91.915 45.5983 91.9752 45.6148 92.0354C45.6529 92.1835 45.6902 92.3295 45.7305 92.4768C45.5821 92.5689 45.4313 92.6545 45.2836 92.7488C44.8927 92.7657 44.4984 92.7592 44.1046 92.7403C41.8931 92.6393 39.6538 92.041 37.6083 91.1826C36.6953 90.8 35.8018 90.3688 34.9224 89.9155C34.9277 89.5044 35.0196 89.1091 35.2422 88.7578Z" fill="#FBC32B"/>
<path d="M36.1616 81.9229C37.2702 81.5277 38.488 82.1055 38.8823 83.2119C39.1334 83.9162 38.9882 84.6637 38.5661 85.2184C37.2579 84.8542 35.9768 84.3872 34.7481 83.8476C34.7833 83.0046 35.316 82.2243 36.1616 81.9229Z" fill="#FBC32B"/>
<path d="M36.0128 101.247C35.6433 100.21 36.1846 99.069 37.2237 98.6986C37.9584 98.4367 38.7369 98.6345 39.2655 99.1345C38.6444 100.231 38.1323 101.378 37.6712 102.552C36.9367 102.471 36.2778 101.99 36.0128 101.247Z" fill="#FBC32B"/>
<path d="M33.1372 93.3787C32.6351 93.5577 32.0816 93.2969 31.9026 92.7947C31.7236 92.2926 31.9874 91.7405 32.4895 91.5615C32.5178 91.5514 32.5483 91.5479 32.5774 91.54C32.9647 91.7743 33.3512 92.0064 33.7449 92.2312C33.8665 92.7097 33.6111 93.2098 33.1372 93.3787Z" fill="#FBC32B"/>
<path d="M26.2771 112.027C26.2066 111.83 26.3093 111.609 26.5093 111.538C26.5962 111.507 26.6847 111.515 26.7663 111.544C26.7465 111.784 26.7317 112.025 26.7199 112.267C26.534 112.308 26.3421 112.21 26.2771 112.027Z" fill="#FBC32B"/>
<path d="M37.477 115.437C39.2539 111.391 41.2069 107.385 43.8802 103.867C45.1322 102.218 46.5559 100.679 48.1362 99.3388C48.2444 99.5942 48.3577 99.8503 48.4703 100.104C48.507 100.187 48.5408 100.268 48.5768 100.348C48.7488 100.728 48.9238 101.109 49.1048 101.492C46.7763 103.469 44.9372 106.131 43.5509 108.882C41.3127 113.317 39.9595 118.161 37.6334 122.549C36.0872 125.47 33.9709 128.248 31.3099 130.137C31.3099 130.137 31.3078 130.138 31.307 130.135C31.0885 129.736 30.8736 129.332 30.6623 128.925C30.6593 128.923 30.6586 128.921 30.6586 128.921C30.6266 128.859 30.5941 128.802 30.5621 128.74L30.5643 128.739C33.63 124.927 35.5065 119.936 37.477 115.437Z" fill="#F79520"/>
<mask id="mask5_157_62" style="mask-type:luminance" maskUnits="userSpaceOnUse" x="13" y="74" width="41" height="48">
<path d="M39.6826 74.1776L13.7891 83.4071L27.4754 121.804L53.3689 112.574L39.6826 74.1776Z" fill="white"/>
</mask>
<g mask="url(#mask5_157_62)">
<path d="M13.9074 83.6711C18.0896 83.0599 22.4812 83.8268 26.3993 85.4853C29.3477 86.7324 32.0722 88.4513 34.9192 89.9158C35.7986 90.3691 36.6921 90.8003 37.6051 91.1829C39.6506 92.0414 41.8899 92.6396 44.1014 92.7407C44.4952 92.7595 44.8895 92.766 45.2804 92.7492C45.4281 92.6549 45.5789 92.5693 45.7273 92.4772C45.8283 92.8429 45.9336 93.2072 46.0441 93.572C46.052 93.6011 46.0599 93.6301 46.0707 93.6605C46.2181 94.1495 46.3735 94.6404 46.5361 95.1312C46.4073 95.1477 46.2786 95.1716 46.149 95.1859C45.8514 95.4096 45.563 95.652 45.282 95.9016C44.0255 97.0159 42.9396 98.3682 42.0321 99.8088C41.7332 100.283 41.4541 100.765 41.1941 101.252C40.8448 101.908 40.5281 102.579 40.2209 103.257C38.7967 106.396 37.7293 109.704 36.1194 112.755C36.1046 112.782 36.0884 112.812 36.0737 112.84C35.7027 113.538 35.2993 114.221 34.8649 114.885C33.4598 117.04 31.7308 118.993 29.7321 120.576C29.5574 120.065 29.3776 119.56 29.2016 119.06C29.8673 118.357 30.4906 117.61 31.0761 116.841C32.019 115.596 32.8643 114.29 33.5886 112.995C34.3242 111.677 34.9085 110.286 35.4325 108.869C35.9822 107.387 36.47 105.875 36.9939 104.383C37.2111 103.769 37.4342 103.158 37.6692 102.552C38.1303 101.378 38.6424 100.231 39.2635 99.1346C39.3903 98.913 39.5171 98.6914 39.6528 98.474C39.8046 98.2264 39.9682 97.9843 40.1334 97.7466C40.244 97.5896 40.3524 97.4333 40.4668 97.2799C41.0107 96.5446 41.6124 95.8475 42.2624 95.1968C41.3357 95.1058 40.4178 94.943 39.5225 94.7133C39.0647 94.5972 38.6138 94.4664 38.1698 94.3135C37.5699 94.1084 36.9855 93.8708 36.41 93.6105C35.4994 93.2001 34.6124 92.7323 33.7429 92.2313C33.3492 92.0066 32.9627 91.7744 32.5754 91.5401C29.8626 89.8954 27.2329 88.0644 24.287 86.8997C21.2227 85.6915 17.6872 84.7835 14.289 84.7968C14.2882 84.7946 14.2875 84.7924 14.2859 84.7881C14.1542 84.4185 14.0239 84.0461 13.8979 83.672C13.9001 83.6713 13.9052 83.6719 13.9074 83.6711Z" fill="#F79520"/>
</g>
<mask id="mask6_157_62" style="mask-type:luminance" maskUnits="userSpaceOnUse" x="26" y="119" width="4" height="4">
<path d="M28.291 119.632L26.8824 120.134L27.6758 122.36L29.0844 121.858L28.291 119.632Z" fill="white"/>
</mask>
<g mask="url(#mask6_157_62)">
<path d="M28.0588 120.185C28.2467 120.589 28.4483 120.982 28.6794 121.356C28.3217 121.603 27.9588 121.843 27.5875 122.066C27.5875 122.066 27.5875 122.066 27.5853 122.067C27.5698 122.023 27.5535 121.977 27.538 121.934C27.4562 121.718 27.378 121.499 27.2975 121.28C27.2588 121.171 27.2179 121.063 27.1791 120.955C27.1784 120.952 27.1776 120.95 27.1768 120.948C27.179 120.947 27.179 120.947 27.179 120.947C27.479 120.703 27.7723 120.447 28.0588 120.185Z" fill="#F79520"/>
</g>
<path d="M34.6057 83.7857C34.6529 83.8081 34.7015 83.8275 34.7479 83.8477C35.9765 84.3873 37.2577 84.8543 38.5659 85.2185C39.1855 85.3896 39.8111 85.5366 40.4413 85.6549C41.7603 85.905 43.0892 86.0316 44.4051 85.9913C44.5069 86.7512 44.6271 87.5144 44.7677 88.2801C42.5059 88.2925 40.2312 87.9935 38.0334 87.4637C37.9527 87.4435 37.8697 87.4168 37.789 87.3965C33.5842 86.3498 29.6152 84.5209 25.7548 82.5503C21.3802 80.3123 16.7687 77.6295 11.9815 76.6189C11.9807 76.6167 11.9799 76.6145 11.9799 76.6145C11.8722 76.0993 11.7718 75.5838 11.6765 75.069C11.6765 75.069 11.6757 75.0668 11.6749 75.0647C14.9331 74.8441 18.3323 75.6585 21.377 76.9423C25.9547 78.8704 30.0663 81.7657 34.6057 83.7857Z" fill="#F79520"/>
<path d="M81.3677 27.1939C80.8875 26.3827 80.3762 25.5874 79.8369 24.8168C79.6151 24.5039 79.9814 24.1088 80.3104 24.31C81.1472 24.8226 81.9289 25.4211 82.6514 26.0871C84.0784 27.3963 85.2606 28.9741 86.1169 30.7096C85.9723 30.744 85.8272 30.7835 85.6826 30.8179C85.5359 30.853 85.3878 30.8911 85.2411 30.9263C84.6478 31.0765 84.0562 31.231 83.467 31.3994C82.8699 29.9512 82.1635 28.5468 81.3677 27.1939Z" fill="#F79520"/>
<path d="M59.3345 35.54C59.0453 35.2854 59.3094 34.8164 59.6753 34.9359C60.2721 35.1323 60.8544 35.3706 61.4234 35.6406C63.3239 36.5459 65.0346 37.847 66.4163 39.4345C65.6945 39.9319 64.9832 40.4451 64.2868 40.9726C62.9787 39.1654 61.4698 37.4958 59.827 35.9867C59.6633 35.8368 59.4996 35.6869 59.3345 35.54Z" fill="#F79520"/>
<path d="M47.7583 50.4068C47.4252 50.2144 47.5949 49.7007 47.9769 49.7483C49.1873 49.8999 50.3754 50.2089 51.5144 50.6482C52.2383 50.9267 52.9409 51.2618 53.6145 51.6464C53.1442 52.2721 52.6895 52.9071 52.248 53.5519C51.3131 52.7778 50.3376 52.0549 49.3253 51.3868C48.8095 51.0464 48.2889 50.7199 47.7583 50.4068Z" fill="#F79520"/>
<path d="M130.352 55.268C129.73 55.4896 129.019 55.2751 128.666 54.7174C126.932 51.9766 123.892 50.5884 121.196 51.5491C118.503 52.5091 117.026 55.5075 117.417 58.7271C117.496 59.3824 117.081 59.9982 116.459 60.2198C115.59 60.5297 114.671 59.9582 114.535 59.0465C113.87 54.5428 116.134 50.1859 120.194 48.7385C124.257 47.2904 128.767 49.233 131.098 53.1424C131.572 53.9341 131.221 54.9581 130.352 55.268Z" fill="#142F35"/>
<path d="M136.777 100.83C136.721 100.899 136.661 100.966 136.605 101.035C136.748 100.859 136.89 100.679 137.031 100.499C136.945 100.608 136.863 100.721 136.777 100.83Z" fill="#60CACE"/>
<path d="M140.601 95.3159C140.518 95.4534 140.431 95.5873 140.348 95.7248C140.456 95.5466 140.567 95.3699 140.672 95.1904C140.647 95.231 140.625 95.2731 140.601 95.3159Z" fill="#60CACE"/>
<path d="M133.379 104.696C133.368 104.707 133.356 104.719 133.345 104.73C133.451 104.622 133.55 104.51 133.653 104.4C133.561 104.499 133.473 104.596 133.379 104.696Z" fill="#60CACE"/>
<path d="M142.837 91.0478C142.627 91.5098 142.408 91.9676 142.183 92.4226C142.425 91.9344 142.658 91.4398 142.883 90.9432C142.867 90.9756 142.854 91.0124 142.837 91.0478Z" fill="#60CACE"/>
<path d="M143.557 89.3775C143.518 89.4695 143.483 89.563 143.445 89.655C143.32 89.9517 143.19 90.2456 143.06 90.5417C143.049 90.5653 143.038 90.5889 143.029 90.6117C143.209 90.2022 143.389 89.7926 143.557 89.3775Z" fill="#60CACE"/>
<path d="M144.202 87.7144C144.137 87.8895 144.076 88.0681 144.009 88.2439C143.91 88.5022 143.806 88.7598 143.704 89.0167C143.692 89.0454 143.68 89.0741 143.668 89.1028C143.852 88.6428 144.032 88.1792 144.202 87.7144Z" fill="#60CACE"/>
<path d="M54.0735 84.1251C54.5331 83.9025 55.007 83.6992 55.4961 83.5249C55.2803 83.7513 55.0413 83.9467 54.7471 84.0491C54.5289 84.1244 54.3023 84.1415 54.0735 84.1251Z" fill="#60CACE"/>
<path d="M144.794 85.9993C144.789 86.0133 144.784 86.0273 144.78 86.0434C144.697 86.3035 144.612 86.5615 144.523 86.821C144.441 87.0584 144.354 87.2952 144.269 87.5313C144.263 87.5482 144.258 87.5673 144.249 87.585C144.439 87.0592 144.623 86.5306 144.794 85.9993Z" fill="#60CACE"/>
<path d="M57.1646 108.946C57.3885 108.866 57.506 108.619 57.4262 108.395C57.3472 108.173 57.1003 108.058 56.8764 108.137C56.6525 108.217 56.5364 108.462 56.6154 108.684C56.6952 108.908 56.9407 109.026 57.1646 108.946ZM63.7008 109.255C64.3377 109.028 64.6692 108.329 64.4422 107.692C64.2159 107.057 63.5171 106.726 62.8802 106.953C62.2433 107.18 61.9096 107.879 62.1359 108.514C62.3629 109.151 63.0639 109.482 63.7008 109.255ZM63.6749 101.958C63.8988 101.879 64.0141 101.632 63.9343 101.408C63.8553 101.186 63.6098 101.068 63.3859 101.148C63.162 101.227 63.0466 101.474 63.1257 101.696C63.2055 101.92 63.451 102.038 63.6749 101.958ZM76.0404 105.459C76.3295 105.356 76.4806 105.038 76.3775 104.749C76.2745 104.459 75.956 104.308 75.6669 104.411C75.3756 104.515 75.2245 104.834 75.3276 105.123C75.4306 105.412 75.7491 105.563 76.0404 105.459ZM93.3892 115.153C100.612 115.176 107.503 111.022 111.66 105.118C114.979 100.407 121.116 85.2248 113.549 83.1228C112.594 82.5469 111.297 82.2839 109.581 82.4449C99.7405 83.3679 90.2578 89.2125 84.975 97.5339C83.9818 99.0982 83.1158 100.847 82.7266 102.642C82.0764 104.454 81.809 106.35 82.2807 108.196C83.442 112.753 88.678 115.14 93.3892 115.153ZM110.09 115.435C110.755 115.198 111.103 114.469 110.866 113.804C110.63 113.141 109.899 112.796 109.234 113.033C108.569 113.27 108.221 113.999 108.458 114.662C108.695 115.328 109.425 115.672 110.09 115.435ZM116.939 104.035C117.11 103.974 117.2 103.785 117.139 103.613C117.077 103.441 116.889 103.352 116.717 103.413C116.545 103.474 116.456 103.663 116.517 103.835C116.578 104.007 116.767 104.096 116.939 104.035ZM126.225 97.8461C127.425 97.4184 128.053 96.1018 127.626 94.904C127.199 93.7063 125.88 93.0839 124.68 93.5116C123.48 93.9393 122.854 95.2552 123.281 96.4529C123.708 97.6506 125.025 98.2738 126.225 97.8461ZM135.198 84.8238C135.487 84.7207 135.64 84.4015 135.537 84.1124C135.434 83.8233 135.113 83.673 134.824 83.776C134.535 83.8791 134.384 84.1975 134.487 84.4866C134.59 84.7757 134.908 84.9268 135.198 84.8238ZM49.4052 102.106C49.3565 102.01 49.31 101.914 49.2635 101.818C49.0271 101.327 48.7987 100.837 48.5777 100.348C48.5417 100.267 48.5079 100.186 48.4712 100.104C48.2538 99.6179 48.0452 99.1288 47.8446 98.6417C47.8353 98.6156 47.8225 98.5933 47.8132 98.5672C47.6056 98.0605 47.4097 97.5522 47.2197 97.0466C47.1881 96.9648 47.1573 96.8852 47.1278 96.8026C46.9408 96.2984 46.761 95.7941 46.5915 95.291C46.5797 95.2511 46.5658 95.212 46.554 95.1721C46.3837 94.6669 46.2237 94.1629 46.0739 93.6602C46.063 93.6297 46.0551 93.6007 46.0472 93.5717C45.8936 93.0581 45.7509 92.5479 45.6148 92.0354C45.5982 91.9751 45.5816 91.9149 45.5665 91.8517C45.4317 91.3362 45.3043 90.8206 45.1871 90.3063C45.1863 90.3041 45.1899 90.3004 45.1891 90.2982C45.2103 90.1584 46.5759 89.1988 47.6502 88.4532C48.1141 91.4042 48.7996 94.4476 50.1358 96.9112C50.3475 97.2988 51.0079 97.0414 50.951 96.6207C50.69 94.7611 50.0067 92.9541 49.5747 91.1237C49.2974 89.9608 49.0616 88.7905 48.8577 87.6137C48.8648 87.6063 48.8771 87.5995 48.885 87.5942C49.5791 87.0601 50.2753 86.5253 50.9903 86.0157C51.3536 86.533 51.9625 86.8598 52.5841 87.0229C52.6971 87.0512 52.8115 87.0766 52.9287 87.0961C54.2118 87.3075 55.5432 86.8501 56.518 86.0176C57.401 85.2643 58.3241 84.1219 58.232 82.8808C58.4163 82.8616 58.5984 82.8433 58.7822 82.8366C61.8982 82.6985 64.4926 84.5127 65.9725 87.1799C66.5555 88.2314 66.9656 89.3199 67.2666 90.4327C66.4681 90.2543 65.6569 89.8893 64.9806 90.2945C64.3627 90.6642 64.2325 91.5705 64.569 92.2052C64.9041 92.8427 65.5893 93.2257 66.2843 93.4091C66.3981 93.4396 66.5147 93.4642 66.6289 93.4823C67.0405 93.5512 67.4543 93.5433 67.8618 93.4838C67.9525 94.1644 68.0266 94.8534 68.0949 95.5469C68.1938 96.5528 68.46 97.602 69.1876 98.3031C70.5646 99.6301 73.4215 99.6652 74.9865 98.6811C79.1477 96.066 76.2014 88.8379 79.4418 85.1448C83.6137 80.3945 93.193 86.0447 97.197 81.1533C98.7519 79.2541 98.6939 76.4451 100.104 74.4357C101.476 72.4841 104.018 71.6491 106.403 71.6736C110.249 71.7138 113.558 74.2046 117.503 74.5252C121.322 74.8376 125.237 74.1232 128.655 72.3781C131.362 70.9989 133.748 69.0314 136.515 67.7684C138.247 66.9794 140.211 66.4899 142.125 66.6752C144.492 66.9044 145.491 68.0159 146.956 69.7257C146.956 69.7279 146.954 69.7287 146.954 69.7287C147.139 73.0802 146.921 76.4533 146.342 79.7637C146.327 79.8473 146.313 79.9308 146.3 80.0164C146.232 80.3835 146.158 80.7529 146.082 81.118C146.054 81.258 146.027 81.395 145.997 81.5329C145.925 81.8672 145.847 82.1965 145.769 82.5281C145.727 82.6997 145.686 82.8714 145.642 83.0438C145.567 83.3498 145.486 83.6529 145.404 83.9568C145.349 84.155 145.294 84.351 145.237 84.5478C145.156 84.829 145.073 85.111 144.987 85.3916C144.926 85.5921 144.861 85.7942 144.795 85.9963C143.901 86.614 142.902 87.0777 141.852 87.3344C142.335 85.842 142.75 84.3269 143.107 82.8006C143.235 82.6695 143.291 82.4756 143.225 82.2909C143.821 79.6531 144.253 77.0047 144.556 74.4445C144.627 73.8336 143.692 73.65 143.609 74.2678C143.082 78.1304 142.22 81.9189 141.03 85.6332C140.824 86.2776 140.598 86.9144 140.364 87.544C140.236 87.5503 140.107 87.5595 139.977 87.5593C137.778 87.5471 135.658 86.7003 133.461 86.5844C131.264 86.4685 128.693 87.4486 128.178 89.5847C127.576 92.0825 130.085 94.7233 129.058 97.0788C127.984 99.544 124.391 99.1613 121.982 100.361C118.394 102.146 118.022 106.834 116.353 110.028C114.154 114.237 111.561 116.565 106.531 116.618C103.183 116.655 99.6892 116.043 96.583 117.295C94.5634 118.111 92.78 119.692 90.605 119.803C85.7802 120.048 81.6969 114.352 78.5028 111.453C75.7692 108.973 72.6609 106.343 68.9662 106.383C67.9044 106.394 66.6271 106.681 65.9044 107.526C65.2245 108.32 65.4829 109.595 64.4016 110.142C63.0399 110.831 61.5864 109.227 60.0605 109.173C58.2651 109.112 57.3033 110.999 56.6232 112.775C55.3836 111.455 54.2123 110.018 53.116 108.461C53.0919 108.428 53.0679 108.395 53.0431 108.36C52.8625 108.101 52.6848 107.836 52.5063 107.569C52.4649 107.507 52.4213 107.447 52.3821 107.385C52.2306 107.152 52.0804 106.917 51.9325 106.68C51.8691 106.578 51.8021 106.48 51.7386 106.377C51.5287 106.036 51.3201 105.691 51.1165 105.34C51.0279 105.188 50.945 105.024 50.8579 104.868C50.6253 104.456 50.3905 104.045 50.1679 103.62C49.9041 103.114 49.6506 102.609 49.4052 102.106Z" fill="#60CACE"/>
<path d="M92.6867 40.6051C92.8055 42.1135 91.6838 43.5031 90.6108 44.4172C89.4273 45.4271 87.8168 45.9815 86.2597 45.7231C86.1191 45.6998 85.9813 45.6705 85.8441 45.6361C85 45.4127 84.17 44.9466 83.7628 44.1755C83.3543 43.4073 83.5133 42.3069 84.2624 41.8586C85.496 41.12 87.1085 42.5028 88.4674 42.0331C89.1145 41.8073 89.5468 41.2123 89.9788 40.6785C90.4087 40.1456 90.9596 39.6087 91.646 39.5894C92.2165 39.5747 92.645 40.0687 92.6867 40.6051Z" fill="#45B0C6"/>
<path d="M74.3332 44.5578C73.3555 45.389 72.027 45.8478 70.7409 45.6349C70.6267 45.6169 70.5101 45.5923 70.3971 45.5639C69.7021 45.3805 69.0182 44.9946 68.681 44.3578C68.3424 43.7239 68.4747 42.8168 69.0926 42.4472C70.1121 41.8363 71.44 42.9775 72.5634 42.5893C73.0975 42.4039 73.4537 41.9118 73.8089 41.4717C74.1662 41.0307 74.6213 40.5892 75.1859 40.5717C75.6572 40.5605 76.0108 40.9685 76.0463 41.4116C76.142 42.6563 75.2175 43.8016 74.3332 44.5578Z" fill="#45B0C6"/>
<path d="M79.5185 58.6535C78.5416 59.4868 77.2124 59.9435 75.927 59.7328C75.812 59.7125 75.6955 59.6879 75.5825 59.6596C74.8853 59.4769 74.2036 59.0903 73.8649 58.4564C73.5299 57.8188 73.6601 56.9125 74.278 56.5428C75.2953 55.9328 76.6261 57.0753 77.7487 56.685C78.2828 56.4995 78.6391 56.0075 78.9942 55.5673C79.3523 55.1286 79.8066 54.6849 80.372 54.6696C80.8447 54.6554 81.1962 55.0642 81.2316 55.5073C81.3296 56.7512 80.4029 57.8973 79.5185 58.6535Z" fill="#45B0C6"/>
<path d="M83.9186 77.0418C84.4549 76.8556 84.8112 76.3636 85.1663 75.9234C85.5222 75.4854 85.9787 75.0409 86.5441 75.0256C87.0146 75.0122 87.3683 75.4202 87.4037 75.8633C87.5002 77.1102 86.5728 78.2541 85.6906 79.0096C84.7137 79.8429 83.3845 80.2995 82.0983 80.0867C81.9819 80.0694 81.8675 80.044 81.7545 80.0157C81.0595 79.8322 80.3735 79.4471 80.0362 78.8103C79.6998 78.1757 79.8321 77.2686 80.45 76.8989C81.4673 76.2888 82.7974 77.4292 83.9186 77.0418Z" fill="#45B0C6"/>
<path d="M71.8789 77.9649C70.9041 78.7974 69.5727 79.2548 68.2895 79.0434C68.1723 79.0239 68.0587 79.0007 67.945 78.9702C67.2478 78.7876 66.5639 78.4017 66.2274 77.767C65.8902 77.1302 66.0226 76.2231 66.6405 75.8534C67.6578 75.2434 68.9886 76.3859 70.109 75.9964C70.6453 75.8101 71.0016 75.3181 71.3575 74.8801C71.7126 74.4399 72.1691 73.9955 72.7345 73.9802C73.205 73.9668 73.5595 74.377 73.5941 74.8179C73.6907 76.0647 72.7632 77.2087 71.8789 77.9649Z" fill="#45B0C6"/>
<path d="M51.2791 83.9064C52.0989 83.4157 53.1216 84.0581 54.0741 84.1253C54.3029 84.1417 54.5295 84.1246 54.7477 84.0493C55.0419 83.9469 55.2809 83.7514 55.4967 83.5251C55.6745 83.3367 55.8338 83.1305 55.9953 82.9309C56.3534 82.4921 56.8077 82.0484 57.3731 82.0331C57.8436 82.0197 58.1973 82.4277 58.2327 82.8708C58.2321 82.8759 58.2307 82.8788 58.2315 82.881C58.3235 84.1222 57.4004 85.2646 56.5175 86.0178C55.5427 86.8503 54.2113 87.3078 52.9282 87.0963C52.811 87.0768 52.6966 87.0515 52.5836 87.0231C51.962 86.8601 51.3531 86.5332 50.9898 86.0159C50.9447 85.9512 50.9025 85.8878 50.8653 85.8178C50.5288 85.1831 50.6612 84.276 51.2791 83.9064Z" fill="#45B0C6"/>
<path d="M62.5704 55.762C61.5935 56.5953 60.2651 57.0541 58.9789 56.8412C58.8639 56.821 58.7503 56.7978 58.6365 56.7673C57.9394 56.5846 57.2555 56.1988 56.919 55.5641C56.5818 54.9273 56.7141 54.0202 57.332 53.6505C58.3493 53.0405 59.6802 54.183 60.8006 53.7935C61.3355 53.6102 61.6918 53.1181 62.0491 52.6772C62.4042 52.237 62.8585 51.7933 63.4261 51.7772C63.8966 51.7639 64.251 52.174 64.2843 52.6179C64.3822 53.8618 63.4556 55.0079 62.5704 55.762Z" fill="#45B0C6"/>
<path d="M57.1332 72.1937C56.157 73.0292 54.8278 73.4858 53.5424 73.2752C53.4274 73.2549 53.3108 73.2303 53.2 73.2012C52.5021 73.0164 51.819 72.6327 51.4817 71.9959C51.1453 71.3612 51.2755 70.4549 51.8955 70.0844C52.9128 69.4744 54.2429 70.6148 55.3641 70.2274C55.8982 70.0419 56.2545 69.5499 56.6118 69.1089C56.9677 68.6709 57.4212 68.2251 57.9896 68.2112C58.4601 68.1978 58.8137 68.6058 58.847 69.0496C58.945 70.2936 58.0183 71.4397 57.1332 72.1937Z" fill="#45B0C6"/>
<path d="M69.6964 89.3191C70.0537 88.8782 70.508 88.4345 71.0742 88.4213C71.5469 88.4072 71.8984 88.816 71.9338 89.259C72.0317 90.503 71.1051 91.6491 70.2199 92.4031C69.555 92.9709 68.7272 93.3566 67.8613 93.4839C67.4538 93.5434 67.0401 93.5513 66.6284 93.4824C66.5142 93.4643 66.3976 93.4397 66.2839 93.4092C65.5888 93.2258 64.9036 92.8429 64.5685 92.2053C64.232 91.5706 64.3622 90.6643 64.9801 90.2946C65.6564 89.8894 66.4676 90.2544 67.2662 90.4328C67.6709 90.5237 68.0733 90.5665 68.4509 90.4368C68.985 90.2513 69.3412 89.7593 69.6964 89.3191Z" fill="#45B0C6"/>
<path d="M94.7319 64.701C95.087 64.2609 95.5421 63.8194 96.1097 63.8033C96.5802 63.7899 96.9339 64.1979 96.9671 64.6417C97.0659 65.8878 96.1384 67.0318 95.254 67.788C94.2793 68.6205 92.9479 69.078 91.6625 68.8673C91.5475 68.847 91.4331 68.8217 91.3201 68.7933C90.623 68.6107 89.9391 68.2248 89.6019 67.588C89.2654 66.9533 89.3977 66.0462 90.0156 65.6765C91.033 65.0665 92.363 66.2069 93.4842 65.8195C94.0213 65.6354 94.3746 65.142 94.7319 64.701Z" fill="#45B0C6"/>
<path d="M82.7257 102.642C82.4573 103.89 82.4179 105.16 82.7348 106.407C82.958 107.281 83.3457 108.066 83.8493 108.771C83.8472 108.772 83.8472 108.772 83.8428 108.773C83.8653 108.802 83.89 108.83 83.9125 108.859C84.0161 108.998 84.1262 109.135 84.237 109.267C84.2923 109.333 84.3469 109.397 84.4015 109.461C84.5218 109.592 84.6477 109.719 84.7751 109.842C84.8325 109.9 84.8877 109.959 84.9495 110.015C85.0908 110.144 85.2371 110.266 85.3864 110.389C85.4413 110.433 85.4919 110.479 85.546 110.52C85.753 110.682 85.9671 110.836 86.1884 110.982C86.1906 110.982 86.1906 110.982 86.1913 110.984C86.5583 111.223 86.9424 111.441 87.3384 111.638C87.3465 111.64 87.3502 111.644 87.3561 111.647C87.5552 111.745 87.7571 111.837 87.9618 111.923C87.9626 111.925 87.9655 111.927 87.9685 111.928C88.3728 112.1 88.7868 112.251 89.2129 112.381C89.2357 112.39 89.2599 112.396 89.2819 112.403C89.6889 112.528 90.1005 112.631 90.5154 112.716C90.5498 112.723 90.5813 112.729 90.6136 112.737C90.8137 112.776 91.0181 112.813 91.2194 112.842C91.2458 112.847 91.2744 112.852 91.3021 112.854C91.4889 112.883 91.6762 112.907 91.862 112.926C91.892 112.928 91.9205 112.933 91.9483 112.935C92.1465 112.955 92.3432 112.971 92.5405 112.981C92.5829 112.983 92.6253 112.985 92.6676 112.987C92.8693 112.996 93.0701 113.003 93.2695 113.005C100.117 113.027 106.653 109.087 110.596 103.488C110.665 103.387 110.738 103.281 110.811 103.171C110.83 103.142 110.849 103.113 110.869 103.084C110.933 102.983 111.001 102.878 111.07 102.77C111.078 102.757 111.086 102.745 111.093 102.732C111.17 102.61 111.247 102.482 111.325 102.351C111.342 102.323 111.36 102.292 111.377 102.264C111.446 102.146 111.515 102.026 111.586 101.902C111.596 101.882 111.609 101.863 111.619 101.842C111.701 101.7 111.782 101.551 111.865 101.399C111.876 101.375 111.888 101.354 111.902 101.33C111.975 101.193 112.051 101.048 112.127 100.904C112.137 100.883 112.149 100.862 112.159 100.841C112.244 100.676 112.331 100.505 112.416 100.333C112.42 100.324 112.423 100.318 112.428 100.311C112.511 100.145 112.592 99.9737 112.675 99.8019C112.683 99.7821 112.693 99.7614 112.702 99.7408C112.877 99.3773 113.046 99.0009 113.216 98.612C113.222 98.595 113.229 98.5803 113.236 98.5634C113.409 98.1686 113.576 97.7658 113.74 97.3523C113.742 97.3442 113.745 97.3383 113.749 97.3294C115.424 93.0942 116.576 88.0559 115.219 85.0482L115.218 85.0461C114.853 84.2405 114.309 83.5816 113.548 83.1229C121.116 85.225 114.978 100.407 111.659 105.118C107.502 111.022 100.611 115.176 93.3883 115.153C88.6771 115.14 83.4411 112.753 82.2798 108.196C81.8081 106.35 82.0755 104.454 82.7257 102.642Z" fill="#45B0C6"/>
<path d="M109.864 90.6859C109.577 90.5137 109.343 90.2492 109.221 89.9079C108.946 89.1341 109.337 88.2866 110.098 88.0154C110.856 87.745 111.698 88.1532 111.973 88.927C112.249 89.7009 111.855 90.547 111.096 90.8174C110.927 90.8778 110.754 90.9004 110.581 90.8981C110.435 90.6661 110.115 90.572 109.864 90.6859Z" fill="#FBC32B"/>
<path d="M100.738 94.7007C102.056 94.2311 103.505 94.915 103.974 96.2323C104.443 97.5474 103.754 98.9959 102.437 99.4655C101.119 99.935 99.6694 99.2489 99.2007 97.9338C98.7311 96.6165 99.421 95.1702 100.738 94.7007Z" fill="#FBC32B"/>
<path d="M87.8173 102.844C87.6326 102.91 87.4269 102.814 87.3603 102.627C87.2944 102.442 87.3924 102.236 87.5771 102.17C87.7619 102.104 87.9683 102.202 88.0342 102.387C88.1008 102.574 88.0021 102.778 87.8173 102.844Z" fill="#FBC32B"/>
<path d="M84.8009 107.521C84.6162 107.586 84.4105 107.491 84.3439 107.304C84.278 107.119 84.3767 106.915 84.5615 106.849C84.7484 106.782 84.9519 106.879 85.0178 107.064C85.0844 107.25 84.9879 107.454 84.8009 107.521Z" fill="#FBC32B"/>
<path d="M104.813 85.3499C104.626 85.4166 104.422 85.3201 104.356 85.1353C104.29 84.9483 104.386 84.7449 104.573 84.6783C104.758 84.6124 104.964 84.7082 105.03 84.8951C105.096 85.0799 104.997 85.2841 104.813 85.3499Z" fill="#FBC32B"/>
<path d="M87.5628 109.924C92.5696 112.059 98.3591 111.346 102.957 108.575C103.472 108.266 102.939 107.533 102.429 107.82C97.8383 110.407 92.7698 110.69 87.7764 109.272C87.3924 109.164 87.2101 109.773 87.5628 109.924ZM85.3465 107.968C86.2839 107.161 86.9033 106.053 87.6931 105.1C88.4821 104.145 89.5696 103.292 90.8089 103.326C91.9066 103.354 92.8512 104.065 93.8587 104.5C94.8669 104.937 96.2665 104.987 96.8442 104.051C97.4311 103.099 96.792 101.698 97.4855 100.819C98.0403 100.114 99.1349 100.174 99.9762 100.48C100.821 100.786 101.642 101.277 102.539 101.222C103.837 101.144 104.795 99.9232 105.162 98.6777C105.53 97.4344 105.485 96.1054 105.757 94.8348C106.03 93.5664 106.757 92.2514 108.004 91.8856C108.409 91.7655 108.837 91.7574 109.271 91.7718C106.94 97.5614 103.68 102.981 99.4667 107.546C98.9984 108.053 99.6682 108.784 100.221 108.369C105.533 104.376 109.298 98.3353 110.555 91.819C110.973 91.8045 111.376 91.7371 111.745 91.5294C112.654 91.0195 112.958 89.8672 113.062 88.8308C113.165 87.7944 113.175 86.681 113.778 85.8314C114.099 85.3766 114.672 85.0866 115.218 85.0462L115.219 85.0483C116.575 88.056 115.422 93.0951 113.749 97.3295C113.745 97.3384 113.742 97.3443 113.74 97.3524C113.576 97.766 113.409 98.1687 113.236 98.5635C113.229 98.5804 113.222 98.5951 113.216 98.6121C113.046 99.001 112.877 99.3775 112.702 99.7409C112.693 99.7615 112.683 99.7822 112.675 99.802C112.592 99.9738 112.511 100.145 112.428 100.312C112.423 100.318 112.42 100.324 112.416 100.333C112.331 100.505 112.244 100.676 112.159 100.841C112.149 100.862 112.137 100.883 112.127 100.904C112.051 101.048 111.975 101.193 111.902 101.33C111.888 101.354 111.876 101.375 111.865 101.399C111.782 101.551 111.7 101.7 111.619 101.842C111.609 101.863 111.596 101.882 111.586 101.903C111.515 102.026 111.445 102.146 111.377 102.264C111.36 102.292 111.342 102.323 111.325 102.351C111.247 102.482 111.17 102.61 111.093 102.732C111.086 102.745 111.078 102.758 111.07 102.77C111.001 102.878 110.933 102.983 110.869 103.085C110.849 103.113 110.83 103.142 110.811 103.171C110.738 103.281 110.665 103.387 110.596 103.488C106.653 109.088 100.117 113.027 93.2694 113.006C93.0701 113.003 92.8692 112.996 92.6676 112.987C92.6252 112.985 92.5828 112.983 92.5405 112.981C92.3432 112.971 92.1465 112.955 91.9483 112.935C91.9205 112.933 91.8919 112.928 91.862 112.927C91.6762 112.907 91.4888 112.883 91.3021 112.854C91.2743 112.852 91.2457 112.847 91.2194 112.842C91.018 112.813 90.8136 112.776 90.6136 112.737C90.5813 112.729 90.5498 112.723 90.5153 112.716C90.1004 112.631 89.6888 112.528 89.2819 112.403C89.2598 112.396 89.2356 112.39 89.2128 112.381C88.7868 112.251 88.3727 112.1 87.9684 111.928C87.9655 111.927 87.9625 111.925 87.9618 111.923C87.7571 111.837 87.5552 111.745 87.3561 111.647C87.3502 111.644 87.3464 111.64 87.3384 111.638C86.9423 111.441 86.5583 111.223 86.1913 110.984C86.1905 110.982 86.1905 110.982 86.1884 110.983C85.9671 110.836 85.753 110.682 85.546 110.521C85.4918 110.479 85.4413 110.433 85.3863 110.389C85.2371 110.266 85.0908 110.144 84.9494 110.015C84.8877 109.959 84.8325 109.9 84.7751 109.842C84.6477 109.719 84.5217 109.592 84.4015 109.461C84.3469 109.397 84.2923 109.333 84.2369 109.267C84.1262 109.135 84.016 108.998 83.9124 108.859C83.8899 108.83 83.8653 108.802 83.8428 108.773C83.8471 108.772 83.8471 108.772 83.8493 108.771C84.395 108.618 84.9213 108.335 85.3465 107.968Z" fill="#FBC32B"/>
<path d="M105.029 87.9872C99.2622 91.0399 93.9942 95.0588 89.7816 99.9902C89.3354 100.512 88.5321 99.9285 88.8768 99.3352C92.3024 93.4398 98.0668 88.896 104.606 86.9522C105.26 86.7584 105.631 87.6697 105.029 87.9872Z" fill="#F79520"/>
<path d="M100.22 108.369C99.6676 108.784 98.9977 108.053 99.4661 107.546C103.68 102.981 106.939 97.5615 109.271 91.7719C109.373 91.515 109.478 91.2596 109.577 91.0013C109.638 90.8424 109.744 90.7409 109.864 90.6859C110.115 90.572 110.435 90.6661 110.581 90.8981C110.65 91.0032 110.684 91.1383 110.656 91.2951C110.626 91.4702 110.587 91.6432 110.554 91.8191C109.298 98.3354 105.532 104.377 100.22 108.369Z" fill="#F79520"/>
<path d="M124.68 93.5117C125.88 93.084 127.199 93.7064 127.626 94.9041C128.053 96.1018 127.425 97.4184 126.225 97.8461C125.025 98.2738 123.708 97.6507 123.281 96.4529C122.854 95.2552 123.48 93.9394 124.68 93.5117Z" fill="#87D7D6"/>
<path d="M134.823 83.7762C135.112 83.6731 135.432 83.8234 135.535 84.1126C135.638 84.4017 135.485 84.7209 135.196 84.8239C134.907 84.927 134.588 84.7759 134.485 84.4868C134.382 84.1977 134.533 83.8792 134.823 83.7762Z" fill="#87D7D6"/>
<path d="M143.106 82.8007C143.146 82.6298 143.186 82.4611 143.224 82.291C143.289 82.4758 143.234 82.6696 143.106 82.8007Z" fill="#87D7D6"/>
<path d="M75.6656 104.412C75.9547 104.309 76.2731 104.46 76.3762 104.749C76.4792 105.038 76.3281 105.357 76.039 105.46C75.7478 105.563 75.4293 105.412 75.3263 105.123C75.2232 104.834 75.3743 104.516 75.6656 104.412Z" fill="#87D7D6"/>
<path d="M63.3847 101.148C63.6086 101.068 63.8541 101.186 63.9332 101.408C64.013 101.632 63.8976 101.879 63.6738 101.959C63.4499 102.038 63.2044 101.92 63.1245 101.696C63.0455 101.475 63.1609 101.228 63.3847 101.148Z" fill="#87D7D6"/>
<path d="M56.8767 108.138C57.1006 108.058 57.3475 108.173 57.4265 108.395C57.5063 108.619 57.3888 108.866 57.1649 108.946C56.9411 109.026 56.6955 108.908 56.6157 108.684C56.5367 108.462 56.6528 108.217 56.8767 108.138Z" fill="#87D7D6"/>
<path d="M116.717 103.413C116.888 103.352 117.077 103.442 117.138 103.613C117.199 103.785 117.11 103.974 116.938 104.035C116.766 104.096 116.578 104.007 116.516 103.835C116.455 103.663 116.545 103.474 116.717 103.413Z" fill="#87D7D6"/>
<path d="M109.234 113.033C109.899 112.796 110.63 113.141 110.866 113.804C111.103 114.469 110.756 115.198 110.09 115.435C109.425 115.672 108.695 115.327 108.458 114.662C108.221 113.999 108.569 113.27 109.234 113.033Z" fill="#87D7D6"/>
<path d="M62.8792 106.953C63.5161 106.726 64.2149 107.058 64.4411 107.692C64.6681 108.329 64.3366 109.028 63.6997 109.255C63.0628 109.482 62.3618 109.151 62.1348 108.514C61.9086 107.88 62.2423 107.18 62.8792 106.953Z" fill="#87D7D6"/>
<path d="M96.6238 77.6019C97.0515 78.8018 96.4241 80.1206 95.2242 80.5483C94.0221 80.9767 92.7041 80.3514 92.2764 79.1515C91.8495 77.9538 92.4748 76.6358 93.6769 76.2073C94.8768 75.7796 96.1969 76.4042 96.6238 77.6019Z" fill="#60CACE"/>
<path d="M75.5054 93.5912C75.9788 94.9193 75.2842 96.3796 73.9538 96.8538C72.6235 97.328 71.1618 96.6363 70.6884 95.3081C70.215 93.98 70.9096 92.5197 72.2399 92.0455C73.5703 91.5713 75.032 92.263 75.5054 93.5912Z" fill="#60CACE"/>
<path d="M52.965 79.4832C52.6215 79.6056 52.2492 79.4272 52.1284 79.0881C52.0075 78.749 52.183 78.3753 52.5264 78.2528C52.8655 78.132 53.24 78.3096 53.3609 78.6487C53.4817 78.9878 53.3041 79.3623 52.965 79.4832Z" fill="#60CACE"/>
<path d="M68.9507 86.5641C69.0724 86.9054 68.8947 87.2798 68.5556 87.4007C68.2143 87.5223 67.8399 87.3447 67.7182 87.0034C67.5973 86.6643 67.775 86.2898 68.1163 86.1682C68.4554 86.0473 68.8298 86.225 68.9507 86.5641Z" fill="#60CACE"/>
<path d="M95.3338 72.3118C95.6729 72.1909 96.0496 72.3678 96.1712 72.7091C96.2921 73.0482 96.1123 73.4234 95.7732 73.5443C95.4319 73.6659 95.0574 73.4883 94.9365 73.1492C94.8149 72.8079 94.9926 72.4334 95.3338 72.3118Z" fill="#60CACE"/>
<path d="M112.867 62.0639C113.208 61.9422 113.583 62.1199 113.704 62.4612C113.825 62.8003 113.648 63.1747 113.306 63.2964C112.967 63.4172 112.593 63.2396 112.472 62.9005C112.35 62.5592 112.528 62.1847 112.867 62.0639Z" fill="#60CACE"/>
<path d="M142.145 64.8795C142.024 64.5404 142.202 64.1659 142.541 64.0451C142.882 63.9234 143.257 64.1011 143.377 64.4402C143.499 64.7815 143.321 65.1559 142.98 65.2776C142.641 65.3984 142.267 65.2208 142.145 64.8795Z" fill="#60CACE"/>
<path d="M120.96 66.7469C122.421 66.2262 124.025 66.9872 124.544 68.4436C125.064 69.9022 124.302 71.504 122.842 72.0247C121.381 72.5454 119.778 71.7865 119.258 70.3279C118.738 68.8715 119.5 67.2675 120.96 66.7469Z" fill="#60CACE"/>
<path d="M125.505 38.2221C118.597 34.251 110.382 31.6989 102.338 32.0818C101.894 32.1027 101.842 32.8417 102.292 32.8674C110.402 33.3305 118.004 34.9647 125.152 38.963C125.616 39.2213 125.958 38.4821 125.505 38.2221ZM121.181 41.7552C119.373 41.1013 118.308 39.2978 117.019 37.8785C115.728 36.457 113.556 35.3201 111.956 36.3852C111.552 36.6542 111.221 37.0493 110.76 37.2012C109.559 37.5975 108.607 36.2267 107.589 35.4799C106.506 34.6898 104.963 34.5881 103.782 35.2271C102.803 35.7575 102.42 36.58 102.047 37.568C101.611 38.7179 100.528 39.4738 99.2202 39.6731C96.0274 40.1595 96.3225 35.8943 94.1565 34.6427C93.2146 34.0965 92.0626 34.0882 90.9715 34.0925C89.1615 34.1007 87.3471 34.1104 85.5371 34.1186C84.5657 34.1219 83.5171 34.1012 82.7523 33.509C82.2353 33.1102 81.9243 32.5057 81.5175 31.9966C81.5196 31.9958 81.5196 31.9958 81.5218 31.995C82.745 31.5982 83.988 31.2434 85.242 30.9262C85.3887 30.8911 85.5368 30.853 85.6835 30.8178C86.1229 30.7102 86.5654 30.6113 87.0065 30.5153C87.2106 30.4695 87.414 30.4215 87.6175 30.3808C88.2404 30.2519 88.8656 30.1295 89.4955 30.0201C89.4976 30.0194 89.4998 30.0186 89.502 30.0178C90.1689 29.9026 90.8376 29.799 91.5109 29.7084C91.5363 29.7043 91.5596 29.7009 91.5851 29.6967C92.2373 29.6088 92.8955 29.5309 93.5533 29.4655C93.589 29.4626 93.6217 29.4583 93.6553 29.4561C94.3108 29.3915 94.9681 29.3385 95.6271 29.2971C95.6599 29.2928 95.6912 29.2914 95.7226 29.2901C96.394 29.2492 97.0663 29.2178 97.7411 29.2002C97.7587 29.2013 97.7733 29.201 97.79 29.1999C99.1739 29.1648 100.567 29.1827 101.964 29.2531C101.981 29.252 101.999 29.2553 102.016 29.2542C102.69 29.2885 103.364 29.3373 104.036 29.3943C104.086 29.3983 104.137 29.4046 104.185 29.4094C104.831 29.4683 105.476 29.5375 106.122 29.6183C106.188 29.6264 106.255 29.6345 106.322 29.6448C106.954 29.7259 107.587 29.8187 108.222 29.9231C108.293 29.9348 108.364 29.9486 108.436 29.9595C109.072 30.0661 109.707 30.1851 110.342 30.3165C110.405 30.3284 110.469 30.3424 110.532 30.3542C111.186 30.4911 111.839 30.6403 112.49 30.8028C112.533 30.8121 112.575 30.8215 112.616 30.8338C113.309 31.0056 114.001 31.1928 114.69 31.3931C115.335 31.582 115.975 31.7826 116.612 31.9943C116.665 32.0122 116.719 32.0271 116.772 32.045C117.38 32.2521 117.986 32.4674 118.586 32.6944C118.659 32.722 118.733 32.7497 118.807 32.7774C119.397 33.0032 119.983 33.2399 120.564 33.4863C120.639 33.5205 120.717 33.5518 120.793 33.586C121.374 33.8346 121.95 34.0971 122.52 34.3693C122.587 34.3993 122.652 34.4322 122.718 34.4652C123.3 34.7451 123.876 35.0347 124.445 35.3368C124.488 35.3629 124.533 35.3861 124.576 35.41C125.167 35.7263 125.751 36.0521 126.326 36.3935C126.334 36.3977 126.341 36.4027 126.35 36.4069C126.885 36.7258 127.412 37.055 127.934 37.3931C128.075 37.4873 128.214 37.5801 128.354 37.6721C128.787 37.9587 129.213 38.2528 129.634 38.5536C129.706 38.604 129.778 38.6492 129.848 38.7025L129.846 38.7033C128.672 39.3596 127.582 40.1865 126.407 40.8553C124.82 41.7588 122.896 42.3738 121.181 41.7552Z" fill="#93DAD0"/>
<path d="M106.537 41.4133C105.372 41.8286 104.09 41.2222 103.676 40.0593C103.26 38.8941 103.87 37.6137 105.035 37.1984C106.2 36.7831 107.482 37.3894 107.897 38.5546C108.312 39.7175 107.702 40.998 106.537 41.4133Z" fill="#93DAD0"/>
<path d="M130.363 42.4167C129.95 42.5639 129.494 42.3493 129.346 41.9363C129.198 41.5211 129.416 41.0662 129.829 40.919C130.244 40.771 130.7 40.9857 130.848 41.4009C130.996 41.8139 130.778 42.2687 130.363 42.4167Z" fill="#93DAD0"/>
<path d="M98.6578 44.9591C98.373 45.0606 98.0583 44.9131 97.9568 44.6283C97.8553 44.3436 98.0057 44.0302 98.2905 43.9287C98.5752 43.8272 98.8878 43.9755 98.9893 44.2603C99.0908 44.5451 98.9425 44.8576 98.6578 44.9591Z" fill="#93DAD0"/>
<path d="M92.4486 37.7109C91.9312 37.8953 91.3621 37.6253 91.1777 37.1079C90.9933 36.5906 91.2633 36.0215 91.7807 35.8371C92.298 35.6527 92.8693 35.9219 93.0537 36.4393C93.2381 36.9566 92.9659 37.5265 92.4486 37.7109Z" fill="#93DAD0"/>
<path d="M32.2159 113.613C31.4877 113.872 30.6887 113.493 30.4299 112.767C30.1711 112.041 30.5502 111.242 31.2784 110.982C32.0066 110.723 32.8057 111.102 33.0645 111.828C33.3233 112.554 32.9441 113.353 32.2159 113.613Z" fill="#FBC32B"/>
<path d="M83.9717 25.1488C83.1044 25.458 82.1498 25.0069 81.8414 24.1418C81.5323 23.2744 81.9871 22.3235 82.8544 22.0143C83.7195 21.7059 84.6733 22.1548 84.9825 23.0222C85.2908 23.8873 84.8368 24.8405 83.9717 25.1488Z" fill="#FBC32B"/>
<path d="M78.9651 26.3891C78.8195 26.4411 78.6603 26.3655 78.6091 26.2221C78.5572 26.0764 78.6336 25.9194 78.7792 25.8675C78.9227 25.8163 79.0811 25.8897 79.133 26.0353C79.1842 26.1788 79.1086 26.338 78.9651 26.3891Z" fill="#FBC32B"/>
<path d="M51.6702 47.0867C51.5246 47.1386 51.3661 47.0653 51.3142 46.9196C51.2631 46.7762 51.3386 46.6169 51.4843 46.565C51.6277 46.5139 51.787 46.5894 51.8381 46.7329C51.89 46.8785 51.8137 47.0356 51.6702 47.0867Z" fill="#FBC32B"/>
<path d="M61.0304 31.5792C60.8847 31.6311 60.7255 31.5556 60.6744 31.4121C60.6225 31.2665 60.698 31.1072 60.8436 31.0553C60.9871 31.0042 61.1463 31.0797 61.1982 31.2254C61.2494 31.3688 61.1738 31.5281 61.0304 31.5792Z" fill="#FBC32B"/>
<path d="M44.6121 55.4773C44.5609 55.3338 44.6343 55.1754 44.7799 55.1235C44.9256 55.0716 45.0848 55.1471 45.1359 55.2906C45.1879 55.4362 45.1123 55.5954 44.9667 55.6473C44.821 55.6993 44.664 55.6229 44.6121 55.4773Z" fill="#FBC32B"/>
<path d="M58.7119 40.6397C58.3793 40.7582 58.0129 40.5826 57.8951 40.2522C57.7766 39.9196 57.9501 39.554 58.2826 39.4354C58.6152 39.3169 58.9808 39.4904 59.0994 39.8229C59.2172 40.1534 59.0445 40.5211 58.7119 40.6397Z" fill="#FBC32B"/>
<path d="M67.6349 32.4221C67.3024 32.5407 66.9367 32.3672 66.819 32.0368C66.7004 31.7042 66.8739 31.3386 67.2065 31.2201C67.5391 31.1015 67.9047 31.275 68.0232 31.6076C68.141 31.938 67.9675 32.3036 67.6349 32.4221Z" fill="#FBC32B"/>
<path d="M44.5383 57.0497C44.6512 56.789 44.8679 56.5721 45.157 56.4691C45.7156 56.27 46.3303 56.558 46.5294 57.1166C46.7278 57.6731 46.4346 58.2872 45.876 58.4863C45.3195 58.6847 44.704 58.3945 44.5057 57.838C44.4445 57.6663 44.4365 57.4927 44.4601 57.3251C44.5185 57.2553 44.5465 57.162 44.5383 57.0497Z" fill="#FBC32B"/>
<path d="M145.99 53.141C146.57 53.0349 146.789 54.0347 146.206 54.1665C144.705 54.5055 143.971 55.5586 143.363 56.8704C143.187 57.2492 142.531 57.162 142.53 56.7139C142.529 54.8256 144.273 53.4568 145.99 53.141Z" fill="white"/>
<path d="M137.116 97.379C136.826 97.8083 136.205 97.346 136.386 96.9116C137.692 93.7635 139.18 90.7292 140.362 87.5442C140.596 86.9146 140.822 86.2778 141.029 85.6334C142.218 81.9191 143.08 78.1306 143.607 74.268C143.691 73.6502 144.626 73.8338 144.555 74.4448C144.252 77.005 143.819 79.6533 143.223 82.2911C143.186 82.4612 143.146 82.6299 143.106 82.8008C142.748 84.3271 142.333 85.8422 141.851 87.3347C140.693 90.9249 139.158 94.3653 137.116 97.379Z" fill="white"/>
<path d="M132.696 100.53C133.164 100.189 133.756 99.7528 133.824 99.1309C133.879 98.6116 133.297 97.8338 132.775 98.3607C132.495 98.6467 132.03 98.2709 132.295 97.956C132.982 97.1352 134.34 97.3984 134.71 98.3937C135.182 99.6708 134.238 100.85 133.083 101.281C132.627 101.451 132.308 100.81 132.696 100.53Z" fill="white"/>
<path d="M27.0245 96.2778C22.4019 96.6638 18.2692 92.0048 17.2053 87.9203C17.0205 87.2095 18.0532 86.8144 18.3009 87.5297C19.0081 89.5757 20.1901 91.3936 21.8655 92.7808C23.4769 94.1125 25.3134 94.6118 27.1821 95.4279C27.5997 95.6098 27.4602 96.2426 27.0245 96.2778Z" fill="white"/>
<path d="M29.1777 122.092C29.0028 121.855 28.8363 121.608 28.68 121.355C28.449 120.982 28.2474 120.588 28.0595 120.185C27.5163 119.012 27.1489 117.727 26.9367 116.396C26.7182 115.041 26.6558 113.642 26.7215 112.266C26.7333 112.024 26.7481 111.784 26.7679 111.544C26.8876 110.058 27.1476 108.616 27.5186 107.32C27.6922 106.714 28.6384 106.867 28.4983 107.505C27.9771 109.871 27.7966 112.299 28.0756 114.711C28.1531 115.389 28.2892 116.039 28.4533 116.671C28.6643 117.483 28.928 118.271 29.2041 119.059C29.3802 119.56 29.5599 120.064 29.7347 120.575C29.8514 120.923 29.968 121.271 30.0762 121.629C30.2415 122.176 29.5282 122.56 29.1777 122.092Z" fill="white"/>
<path d="M44.5287 56.9646C44.5374 56.9958 44.5321 57.0222 44.537 57.0499C44.5452 57.1621 44.5172 57.2554 44.4588 57.3252C44.2958 57.5278 43.9414 57.5439 43.7875 57.2288C42.3151 54.1841 42.9188 50.6199 44.628 47.8131C44.8695 47.4184 45.52 47.7108 45.2885 48.1265C43.7245 50.9281 43.7333 53.9359 44.5287 56.9646Z" fill="white"/>
<path d="M51.5084 66.3713C50.9727 66.8685 49.8547 67.0244 49.5758 66.1732C49.4565 65.8042 49.8481 65.3976 50.2193 65.5935C50.4901 65.7347 50.5651 65.6908 50.7094 65.3944C50.8334 65.1444 50.9162 64.8062 50.8673 64.5247C50.8259 64.2847 50.681 64.057 50.4428 63.9729C50.0972 63.8486 49.7666 64.1379 49.8903 64.5055C50.0507 64.9897 49.3662 65.2141 49.1556 64.7673C48.848 64.1175 49.1972 63.2826 49.8487 62.9866C50.6535 62.6189 51.6166 63.0939 51.9935 63.8489C52.4062 64.6768 52.1845 65.7456 51.5084 66.3713Z" fill="white"/>
<path d="M47.058 71.8333C47.1135 71.2329 48.01 71.418 47.9718 72.0049C47.6986 76.2353 47.8966 80.5574 48.4265 84.7588C48.5462 85.7132 48.6921 86.6656 48.8562 87.6141C49.0601 88.7908 49.2959 89.9611 49.5732 91.124C50.0052 92.9544 50.6885 94.7615 50.9495 96.621C51.0064 97.0417 50.346 97.2991 50.1344 96.9116C48.7981 94.448 48.1126 91.4045 47.6488 88.4536C47.4569 87.2211 47.2996 86.0032 47.154 84.8522C46.5983 80.4959 46.6555 76.1955 47.058 71.8333Z" fill="white"/>
<path d="M125.151 38.9631C118.003 34.9648 110.401 33.3306 102.291 32.8675C101.841 32.8418 101.893 32.1027 102.337 32.0819C110.381 31.699 118.596 34.2511 125.504 38.2222C125.957 38.4822 125.615 39.2213 125.151 38.9631Z" fill="white"/>
<path d="M87.7752 109.272C92.7687 110.69 97.8372 110.407 102.427 107.82C102.938 107.533 103.471 108.267 102.956 108.575C98.358 111.346 92.5685 112.06 87.5617 109.924C87.209 109.773 87.3913 109.164 87.7752 109.272Z" fill="white"/>
</svg>
