<svg width="1420" height="740" viewBox="0 0 1420 740" fill="none" xmlns="http://www.w3.org/2000/svg">
<path d="M922.194 45.9612C794.811 23.9179 677.904 54.2276 613.385 35.4907C548.866 16.7539 479.935 -17.4128 380.675 16.203C281.415 49.8188 130.87 171.056 70.7628 169.954C10.6552 168.852 -0.37338 144.053 2.38369 103.824C5.14077 63.596 48.7051 31.0821 92.8208 60.2893C136.936 89.4964 146.311 142.4 141.348 204.672C136.385 266.944 40.9847 369.444 33.8161 406.366C26.6474 443.288 -22.981 582.439 59.1834 696.924C141.348 811.409 268.733 648.429 520.192 665.512C771.651 682.596 1179.17 732.605 1304.9 683.559C1430.63 634.513 1337.98 692.928 1330.26 573.894C1322.54 454.861 1460.41 433.921 1404.71 270.801C1349.01 107.682 1049.58 68.0046 922.194 45.9612Z" stroke="#F0E3CD" stroke-width="4" stroke-dasharray="8 8"/>
</svg>
