<svg width="802" height="591" viewBox="0 0 802 591" fill="none" xmlns="http://www.w3.org/2000/svg">
<path d="M175 410.5C160.5 416.5 107.001 359.5 76.0006 361.5C45 363.5 16.4994 376 4.99944 421C-6.50056 466 16.4994 506.5 38.9994 528C61.4994 549.5 113.499 553.501 141.999 538C170.499 522.5 183.499 453 230.499 440C277.499 427 432.499 557 458.999 571.5C485.499 586 531.999 597.001 573.999 580C615.999 563 657.499 453.5 637.499 406.5C617.499 359.5 513.999 377 481.999 301C449.999 225 548.999 76.0003 532.999 39.0003C516.999 2.0003 495.999 0.000158072 477.499 3.50003C458.999 6.9999 450.499 36 453.499 57C456.499 78 584.999 155 584.999 155L800.499 301" stroke="#CFE1E4" stroke-width="3" stroke-dasharray="8 8"/>
</svg>
