<svg width="603" height="624" viewBox="0 0 603 624" fill="none" xmlns="http://www.w3.org/2000/svg">
<path d="M40.6898 417.088C40.6898 417.088 40.6903 240.706 18.1953 183.944C-4.29967 127.182 -10.3912 44.1515 46.7821 18.82C103.955 -6.51151 155.037 15.0672 169.564 53.0644C184.091 91.0616 166.284 142.663 151.287 172.216C136.291 201.77 52.4057 183.007 46.7821 112.172C41.1585 41.3369 176.125 5.68486 220.645 5.68574C265.165 5.68662 303.124 31.018 303.124 31.018C303.124 31.018 456.368 -37.0017 489.641 35.2392C522.914 107.48 470.427 197.08 470.427 197.08C470.427 197.08 536.035 327.02 574.463 390.818C612.891 454.615 603.987 506.216 582.899 539.523C561.81 572.83 550.563 588.778 501.825 606.604C453.087 624.431 394.508 626.776 340.615 613.641C286.722 600.507 285.785 480.417 220.645 497.304C155.505 514.19 40.6898 417.088 40.6898 417.088Z" stroke="#CFE1E4" stroke-width="4" stroke-dasharray="8 8"/>
</svg>
