<svg width="2323" height="679" viewBox="0 0 2323 679" fill="none" xmlns="http://www.w3.org/2000/svg">
<path d="M1 677C1 677 235.952 546.434 288.498 466.894C341.043 387.354 310.266 310.816 369.568 261.291C428.869 211.766 506.185 286.804 509.188 324.323C512.19 361.842 521.198 391.857 481.414 446.634C441.63 501.412 286.996 424.874 268.23 324.323C249.464 223.772 284.745 202.011 359.059 148.735C433.373 95.4579 698.351 8.41407 868.748 2.41105C1039.14 -3.59197 1140.48 57.1888 1108.95 117.219C1077.43 177.249 880.758 184.002 808.696 228.275C736.634 272.547 696.85 354.338 732.881 430.877C768.912 507.416 875.504 510.416 955.072 510.416C1034.64 510.416 1053.41 590.707 1093.94 601.213C1134.48 611.718 1196.78 529.925 1304.87 510.416C1412.97 490.907 1436.24 613.218 1537.57 604.214C1638.91 595.21 1716.98 434.629 1789.04 403.863C1861.1 373.098 1901.64 383.603 1984.96 391.858C2068.28 400.112 2322 454.889 2322 454.889" stroke="#CFE1E4" stroke-width="4" stroke-dasharray="8 8"/>
</svg>
