<svg width="12" height="10" viewBox="0 0 12 10" fill="none" xmlns="http://www.w3.org/2000/svg">
<path d="M10.967 0.316502C10.967 0.316502 11.0203 0.329836 11.127 0.356503C11.2337 0.38317 11.3403 0.476503 11.447 0.636502C11.5537 0.796502 11.607 1.0765 11.607 1.4765C11.607 1.98317 11.527 2.3165 11.367 2.4765C11.207 2.60984 11.1003 2.68984 11.047 2.7165C11.0203 2.74317 10.8337 2.88984 10.487 3.1565C10.167 3.42317 9.96699 3.90317 9.88699 4.5965C10.1537 4.64984 10.3803 4.72984 10.567 4.8365C10.7803 4.9165 10.967 5.0365 11.127 5.1965C11.367 5.4365 11.5137 5.7565 11.567 6.1565C11.6203 6.52984 11.647 6.90317 11.647 7.2765C11.647 7.70317 11.607 8.1165 11.527 8.5165C11.447 8.9165 11.2203 9.24984 10.847 9.5165C10.4737 9.78317 9.83366 9.9165 8.92699 9.9165C7.91366 9.9165 7.19366 9.70317 6.76699 9.2765C6.52699 9.0365 6.38033 8.72984 6.32699 8.3565C6.27366 7.9565 6.24699 7.56984 6.24699 7.1965C6.24699 7.00984 6.24699 6.82317 6.24699 6.6365C6.27366 6.44984 6.30033 6.2765 6.32699 6.1165C6.43366 5.04984 6.70033 4.0765 7.12699 3.1965C7.58033 2.3165 8.14033 1.62317 8.80699 1.1165C9.47366 0.583169 10.1937 0.316502 10.967 0.316502ZM5.00699 0.316502C5.00699 0.316502 5.06033 0.329836 5.16699 0.356503C5.30033 0.38317 5.42033 0.476503 5.52699 0.636502C5.63366 0.796502 5.68699 1.0765 5.68699 1.4765C5.68699 1.98317 5.60699 2.3165 5.44699 2.4765C5.28699 2.60984 5.16699 2.68984 5.08699 2.7165C5.06033 2.74317 4.88699 2.88984 4.56699 3.1565C4.24699 3.42317 4.03366 3.90317 3.92699 4.5965C4.19366 4.64984 4.42033 4.72984 4.60699 4.8365C4.82033 4.9165 5.00699 5.0365 5.16699 5.1965C5.43366 5.4365 5.58033 5.7565 5.60699 6.1565C5.66033 6.52984 5.68699 6.90317 5.68699 7.2765C5.68699 7.70317 5.64699 8.1165 5.56699 8.5165C5.48699 8.9165 5.26033 9.24984 4.88699 9.5165C4.51366 9.78317 3.87366 9.9165 2.96699 9.9165C1.95366 9.9165 1.24699 9.70317 0.846992 9.2765C0.580326 9.0365 0.420326 8.72984 0.366992 8.3565C0.340326 7.9565 0.326992 7.56984 0.326992 7.1965C0.326992 7.00984 0.326992 6.82317 0.326992 6.6365C0.353659 6.44984 0.380326 6.2765 0.406992 6.1165C0.513659 5.04984 0.780326 4.0765 1.20699 3.1965C1.63366 2.3165 2.18033 1.62317 2.84699 1.1165C3.51366 0.583169 4.23366 0.316502 5.00699 0.316502Z" fill="white"/>
</svg>
